<?xml version="1.0" standalone="no"?>
<!DOCTYPE svg PUBLIC "-//W3C//DTD SVG 20010904//EN"
 "http://www.w3.org/TR/2001/REC-SVG-20010904/DTD/svg10.dtd">
<svg version="1.0" xmlns="http://www.w3.org/2000/svg"
 width="1300.000000pt" height="1300.000000pt" viewBox="0 0 1300.000000 1300.000000"
 preserveAspectRatio="xMidYMid meet">
<metadata>
Created by potrace 1.14, written by Peter Selinger 2001-2017
</metadata>
<g transform="translate(0.000000,1300.000000) scale(0.100000,-0.100000)"
fill="#000000" stroke="none">
<path d="M6359 12726 c-2 -2 -60 -7 -129 -10 -69 -4 -138 -9 -155 -11 -16 -2
-61 -7 -100 -10 -324 -27 -766 -107 -1130 -206 -907 -246 -1748 -707 -2430
-1332 -714 -655 -1297 -1507 -1625 -2377 -33 -85 -44 -127 -36 -131 6 -4 70
-27 141 -52 72 -25 196 -69 277 -97 81 -29 152 -50 157 -48 5 1 51 86 103 188
438 859 1126 1669 1883 2217 698 505 1479 826 2300 947 229 33 311 42 520 56
134 9 662 5 795 -6 796 -63 1461 -241 2115 -564 716 -354 1334 -858 1882
-1534 153 -189 369 -515 489 -739 l53 -99 -205 -255 c-113 -141 -201 -259
-197 -263 4 -4 96 -25 203 -48 107 -23 332 -71 500 -107 1227 -265 1130 -245
1130 -235 0 4 -23 117 -51 251 -27 134 -68 330 -89 434 -66 322 -167 808 -220
1064 -27 133 -50 246 -50 249 0 6 -8 -3 -221 -243 -68 -77 -126 -142 -129
-145 -3 -3 -32 -35 -64 -73 -59 -67 -59 -67 -74 -45 -67 98 -339 446 -433 553
-244 278 -276 313 -529 565 -1240 1238 -2612 1951 -4015 2086 -145 14 -656 29
-666 20z"/>
<path d="M9969 8444 c-8 -10 -18 -10 -41 -2 -28 10 -33 9 -52 -15 -12 -15 -43
-68 -70 -119 -27 -51 -63 -109 -81 -129 -98 -109 -196 -257 -287 -429 -25 -47
-65 -116 -90 -155 -25 -38 -62 -103 -83 -142 -21 -40 -42 -73 -45 -73 -4 0
-12 11 -18 25 -6 14 -16 25 -21 25 -5 0 -15 24 -21 53 -14 58 -32 97 -65 142
-12 17 -48 83 -79 147 -31 64 -61 120 -66 123 -6 4 -8 10 -5 15 3 5 -4 29 -17
52 -12 24 -21 47 -20 51 2 5 -7 11 -18 14 -11 3 -20 10 -20 15 0 5 -23 59 -51
121 -28 62 -53 124 -55 140 -8 57 -61 121 -72 87 -2 -6 -20 -19 -41 -29 -40
-21 -85 -18 -113 7 -16 13 -19 13 -27 -9 l-10 -24 -7 23 c-8 26 -19 28 -33 5
-8 -15 -11 -15 -26 -3 -15 13 -19 12 -35 -8 -26 -31 -50 -29 -51 6 -1 15 -2
32 -4 37 -1 6 -3 16 -3 23 -3 17 -28 15 -57 -4 -13 -9 -41 -17 -62 -18 -21 -1
-45 -6 -53 -11 -30 -18 -84 -21 -97 -5 -10 12 -15 13 -32 3 -29 -18 -38 -16
-46 10 -6 22 -6 22 -16 -5 -11 -28 -41 -44 -59 -33 -6 4 -19 -4 -29 -16 l-18
-23 5 32 c5 37 -10 42 -48 15 -22 -16 -23 -16 -17 1 5 13 3 17 -10 14 -9 -2
-20 -14 -24 -28 -7 -24 -7 -24 -8 -2 -1 12 -5 22 -11 22 -5 0 -11 0 -12 1 -27
9 -90 14 -94 7 -3 -5 -13 -6 -22 -4 -10 3 -64 7 -122 8 -83 2 -110 -1 -128
-14 l-23 -15 1 -299 c2 -401 -7 -1074 -16 -1204 -4 -58 -7 -127 -6 -155 4
-188 1 -540 -4 -645 -7 -126 -8 -157 -6 -350 2 -107 -1 -178 -15 -399 -6 -93
-5 -128 4 -140 15 -19 17 -107 3 -116 -6 -4 -10 -57 -10 -126 0 -73 4 -119 10
-119 13 0 13 -43 0 -56 -5 -5 -12 -37 -14 -69 -2 -33 -7 -74 -11 -90 -6 -30
-5 -31 44 -47 50 -16 51 -16 51 4 0 17 2 19 16 7 13 -10 17 -10 24 0 6 11 8
11 12 0 6 -17 82 0 84 19 1 6 2 17 3 23 0 6 10 4 23 -5 15 -11 26 -12 40 -5
10 5 18 7 18 3 0 -3 6 -2 13 4 6 5 24 8 39 7 20 -3 25 0 21 11 -3 8 1 14 11
14 9 0 16 -8 16 -20 0 -26 26 -26 33 0 5 21 49 29 44 8 -4 -21 31 -20 53 2 12
12 20 15 19 8 -4 -33 1 -36 68 -32 48 2 74 -1 90 -12 22 -14 24 -13 29 16 6
25 10 29 29 24 13 -3 33 0 46 6 18 10 23 10 31 -4 5 -9 14 -16 21 -16 7 0 18
-9 25 -20 30 -48 86 2 72 65 -3 17 -4 59 -3 95 2 36 5 208 7 382 3 175 7 321
10 326 2 4 7 100 11 212 4 113 8 250 10 305 2 55 6 300 10 545 3 245 8 459 9
475 2 17 4 84 5 150 l1 120 56 -120 c50 -106 102 -228 213 -500 84 -205 100
-252 101 -297 0 -54 14 -98 36 -115 12 -9 25 -7 61 8 24 10 59 19 77 19 18 0
36 3 40 7 4 4 33 8 64 9 31 2 69 7 85 13 18 7 27 7 27 0 0 -6 4 -7 10 -4 5 3
8 18 6 33 -2 15 -1 20 1 11 2 -9 15 -22 29 -30 21 -11 27 -11 34 1 5 8 6 18 3
22 -2 5 1 15 7 23 13 16 31 20 28 8 -2 -14 14 -43 24 -43 6 0 7 13 3 31 -7 30
4 48 28 49 12 0 8 -38 -5 -42 -9 -3 -9 -6 0 -12 7 -4 12 -2 12 3 0 6 6 11 13
11 8 0 22 9 32 20 22 24 36 25 75 5 38 -19 44 -7 24 45 -23 57 -10 62 17 7 22
-45 22 -45 38 -24 45 63 55 103 21 92 -11 -4 -20 -2 -20 4 0 6 7 11 15 11 23
0 28 43 11 85 -20 47 -20 65 -1 65 9 0 14 -8 13 -22 -3 -41 22 -98 43 -98 21
0 25 23 10 63 -8 20 -5 29 14 47 36 34 69 110 48 110 -5 0 -25 -16 -46 -36
-28 -27 -41 -34 -50 -25 -8 8 -6 21 8 48 10 21 19 45 21 53 16 91 39 178 46
174 13 -8 27 39 16 53 -14 17 -6 58 12 59 42 3 61 21 106 97 26 45 49 76 51
70 3 -7 9 -13 15 -13 6 0 6 6 -2 15 -10 11 -9 18 3 30 19 18 53 20 59 3 7 -19
-3 -89 -12 -83 -4 3 -14 -3 -21 -12 -12 -15 -12 -16 4 -10 24 9 23 -25 -3 -48
-11 -10 -20 -30 -20 -44 1 -25 1 -25 12 -6 20 36 53 70 67 70 8 0 21 21 30 46
14 40 40 79 54 79 2 0 3 -30 1 -66 l-3 -66 26 23 c14 13 34 44 44 68 11 24 21
42 23 40 9 -9 16 -92 21 -244 3 -88 7 -198 10 -245 25 -435 37 -2008 17 -2150
-8 -58 0 -114 19 -126 6 -3 31 0 56 7 41 11 47 10 58 -4 15 -21 32 -21 79 -2
20 9 45 14 54 13 10 -2 16 3 14 10 -1 8 2 11 7 8 5 -4 15 0 22 7 18 19 59 9
59 -14 0 -11 4 -19 9 -19 15 0 33 29 28 44 -3 8 0 17 8 20 8 3 16 -5 19 -20 8
-31 32 -26 28 4 -4 28 0 27 46 -2 l38 -24 13 21 c12 18 14 19 22 4 5 -9 16
-14 24 -11 8 4 15 1 15 -5 0 -16 21 -13 42 6 17 15 18 15 18 0 0 -19 25 -23
35 -7 4 6 16 8 26 5 11 -4 26 -2 34 5 10 8 15 8 22 -4 7 -13 71 -20 160 -17
30 1 40 54 31 160 -4 47 -9 149 -12 226 -3 77 -6 145 -6 150 -1 6 0 47 1 93 2
84 -5 108 -21 82 -12 -19 -12 -4 0 40 5 19 12 60 15 90 3 30 7 67 9 83 13 86
4 632 -11 707 -3 14 -8 46 -12 71 -4 25 -18 60 -31 79 -24 33 -24 33 -2 28 16
-5 22 -2 22 10 0 8 7 23 15 32 13 14 13 25 1 86 -8 38 -19 83 -24 101 -6 17
-8 34 -4 37 3 3 7 18 8 33 2 16 5 39 7 53 3 14 2 30 -2 35 -3 6 -6 103 -6 217
0 147 -3 210 -12 219 -7 7 -9 24 -6 41 7 35 -14 144 -34 176 -12 19 -20 62
-37 197 -1 11 -8 32 -15 47 -12 23 -11 33 3 68 18 46 21 81 6 96 -7 7 -7 20
-2 35 4 13 6 62 3 107 -5 71 -9 87 -28 102 -19 15 -20 19 -7 24 8 3 12 10 9
16 -4 6 -11 8 -16 5 -5 -4 -9 4 -9 17 0 18 2 20 10 8 5 -8 10 -10 11 -5 0 6 2
21 3 33 3 23 -18 41 -32 28 -3 -4 -9 -31 -12 -59 -5 -48 -7 -52 -29 -49 -30 3
-61 -24 -61 -52 0 -15 3 -17 9 -8 6 11 10 10 15 -3 5 -15 8 -14 26 6 17 21 21
22 30 9 6 -9 8 -34 5 -60 -4 -25 -7 -50 -8 -56 0 -8 -12 -9 -36 -3 -22 5 -37
4 -39 -2 -5 -13 -22 -1 -22 17 0 8 6 14 14 14 9 0 12 8 8 25 -5 27 -17 33 -26
13 -3 -7 -3 5 1 27 3 22 10 46 15 52 7 9 5 25 -5 52 -9 21 -12 42 -7 47 11 12
16 123 6 152 -4 12 -11 22 -16 22 -12 0 -23 -62 -18 -105 2 -19 3 -35 2 -35
-2 0 -14 10 -28 23 -19 18 -24 30 -20 55 3 20 1 32 -6 32 -7 0 -10 6 -8 13 3
6 18 12 34 12 22 1 29 5 30 22 1 24 -36 46 -61 37 -10 -4 -15 0 -15 11 0 14
-3 15 -15 5 -8 -7 -15 -19 -15 -26 0 -8 -4 -14 -8 -14 -5 0 -7 14 -4 30 5 33
-1 36 -37 16 -21 -12 -26 -11 -42 5 -20 20 -89 27 -89 8 0 -5 -4 -7 -10 -4 -5
3 -25 2 -44 -4 -29 -8 -37 -6 -48 9 -7 10 -22 20 -33 22 -11 2 -25 9 -31 17
-9 11 -11 7 -12 -19 0 -17 -4 -35 -7 -39 -4 -3 -5 8 -3 24 2 19 -2 30 -9 30
-7 0 -12 -3 -10 -7 5 -14 -36 -35 -61 -30 -19 4 -23 2 -17 -8 5 -9 4 -11 -3
-6 -7 4 -12 13 -12 21 0 7 -14 24 -31 36 -36 25 -142 34 -160 13z m87 -21
c-10 -11 -36 -12 -36 -2 0 5 10 9 22 9 12 0 18 -3 14 -7z m586 -197 c5 -10 8
-18 6 -19 -2 -1 -17 -15 -34 -30 -29 -26 -64 -29 -64 -6 0 4 7 6 15 3 12 -5
15 2 15 28 0 19 2 37 5 40 11 11 48 1 57 -16z m-74 -162 c0 -14 5 -30 11 -34
9 -5 8 -10 -4 -20 -8 -7 -16 -27 -16 -44 -1 -17 -5 -5 -10 29 -8 62 -3 109 11
100 4 -2 8 -16 8 -31z m163 -1 c-8 -15 -10 -15 -11 -2 0 17 10 32 18 25 2 -3
-1 -13 -7 -23z m-2831 -2 c0 -5 -7 -11 -15 -15 -9 -3 -15 0 -15 9 0 8 7 15 15
15 8 0 15 -4 15 -9z m-52 -151 c12 1 42 49 34 54 -5 3 -9 19 -10 35 0 22 3 28
13 24 24 -8 32 -99 12 -119 -4 -4 -7 4 -8 17 0 23 -1 23 -12 5 -7 -10 -20 -26
-29 -35 -10 -8 -18 -25 -19 -36 -2 -29 -20 45 -20 77 1 18 -5 29 -19 33 -11 4
-20 15 -20 26 0 18 4 20 30 14 26 -6 30 -4 32 17 1 13 3 -7 5 -44 2 -38 7 -68
11 -68z m2194 10 c6 -88 2 -110 -21 -110 -25 0 -63 -44 -55 -63 3 -9 10 -14
15 -11 5 3 4 -6 -2 -20 -6 -13 -17 -22 -24 -19 -8 2 -18 -5 -25 -16 -9 -17 -8
-21 5 -21 19 0 9 -22 -30 -64 -15 -17 -25 -36 -22 -47 3 -11 -8 -30 -29 -50
-19 -18 -34 -29 -34 -23 0 5 -15 -16 -33 -46 -29 -51 -36 -76 -37 -139 0 -30
-42 -100 -48 -81 -3 9 -10 6 -23 -11 -16 -20 -18 -21 -13 -4 4 11 12 26 17 33
16 20 2 24 -15 5 -22 -25 -49 -93 -37 -93 5 0 4 -9 -3 -20 -7 -11 -21 -20 -30
-20 -10 0 -18 -7 -18 -15 0 -8 4 -15 8 -15 14 0 4 -54 -19 -105 -23 -47 -24
-49 -27 -21 -2 19 3 32 16 42 20 14 27 60 11 70 -5 3 -9 1 -9 -4 0 -4 -8 -17
-17 -28 -19 -22 -37 -50 -64 -101 l-17 -33 -4 30 c-3 21 1 35 14 47 10 9 18
22 18 29 0 7 17 31 38 53 21 22 36 45 34 51 -2 6 8 24 23 40 21 21 25 34 20
52 -4 12 -4 20 0 16 13 -12 65 49 65 76 0 13 7 29 15 36 32 26 56 71 61 110 4
36 2 41 -21 50 -25 9 -36 42 -12 38 7 -2 11 6 10 20 -3 21 -2 22 22 6 13 -8
27 -15 32 -14 4 1 10 -6 13 -16 6 -16 7 -16 14 1 4 11 2 21 -5 26 -7 4 -9 17
-5 33 4 17 11 24 18 20 7 -5 9 -2 5 9 -3 8 0 21 8 27 10 8 14 8 17 0 7 -22 60
45 98 123 21 42 43 84 50 92 9 11 9 22 -1 48 -11 32 -10 37 17 70 15 20 29 35
30 34 1 -1 4 -36 6 -77z m685 4 c10 -27 -11 -35 -24 -8 -9 19 -8 24 3 24 8 0
17 -7 21 -16z m-2929 -47 c0 -25 -4 -33 -19 -33 -24 0 -28 13 -17 54 7 27 12
31 22 22 8 -6 14 -25 14 -43z m99 -29 c-3 -8 -6 -5 -6 6 -1 11 2 17 5 13 3 -3
4 -12 1 -19z m2728 3 c-7 -23 14 -39 26 -20 5 8 9 9 9 3 0 -16 -27 -37 -39
-30 -14 9 -19 -15 -10 -54 12 -53 -27 -83 -57 -42 -18 23 -17 35 2 28 27 -10
35 4 18 30 -9 13 -14 27 -10 31 3 3 6 1 6 -5 0 -27 20 -9 36 33 16 44 31 64
19 26z m-675 -16 c0 -3 -11 -28 -25 -55 -14 -27 -25 -55 -25 -63 0 -7 -13 -26
-30 -42 -40 -38 -38 -27 9 53 22 37 42 77 46 90 5 19 25 32 25 17z m470 -3 c0
-17 -27 -45 -34 -34 -3 6 1 18 10 26 17 18 24 20 24 8z m-1460 -79 c0 -13 -2
-23 -6 -23 -7 0 -34 66 -34 82 1 23 40 -36 40 -59z m-1063 35 c-3 -8 -6 -5 -6
6 -1 11 2 17 5 13 3 -3 4 -12 1 -19z m2849 -8 c-3 -42 -11 -45 -13 -4 -1 19 2
34 7 34 5 0 7 -13 6 -30z m-2925 -123 c-5 -5 -7 -25 -4 -43 4 -27 2 -34 -10
-34 -20 0 -35 22 -19 28 9 3 9 9 2 23 -13 24 -27 24 -33 2 -2 -10 -4 -2 -4 18
0 20 -3 41 -7 47 -4 7 0 15 8 18 9 3 16 13 16 21 0 8 -5 11 -12 7 -7 -4 -8 -3
-4 5 4 6 12 9 17 6 5 -4 9 -1 9 6 0 10 3 10 12 1 19 -19 28 -14 30 16 1 15 4
-4 5 -42 2 -38 0 -73 -6 -79z m2988 112 c-19 -12 -24 -2 -8 17 9 11 14 13 17
4 3 -7 -2 -16 -9 -21z m-2913 -28 c0 -11 -4 -17 -8 -15 -4 3 -8 12 -8 20 0 8
4 14 8 14 4 0 8 -9 8 -19z m2764 -1 c0 -5 -2 -10 -4 -10 -3 0 -8 5 -11 10 -3
6 -1 10 4 10 6 0 11 -4 11 -10z m-293 -92 c-3 -7 -5 -2 -5 12 0 14 2 19 5 13
2 -7 2 -19 0 -25z m-2510 0 c-3 -8 -6 -5 -6 6 -1 11 2 17 5 13 3 -3 4 -12 1
-19z m2703 -13 c-8 -9 -8 -15 -2 -15 6 0 9 -16 8 -35 -4 -47 -16 -58 -16 -14
0 19 -5 40 -12 47 -9 9 -7 16 7 33 21 23 35 8 15 -16z m190 -7 c0 -21 -4 -46
-9 -56 -5 -9 -12 -25 -15 -34 -7 -22 -30 -23 -50 -2 -19 18 -36 10 -36 -17 0
-11 -7 -19 -16 -19 -8 0 -13 -4 -9 -9 3 -5 1 -12 -5 -16 -6 -4 -10 13 -9 47 1
29 3 44 6 33 12 -50 23 -34 24 36 1 54 3 66 8 43 4 -17 11 -36 15 -42 11 -18
26 -14 26 7 0 11 5 23 10 26 6 3 10 -1 10 -9 0 -9 7 -16 15 -16 11 0 12 6 6
23 -10 27 -5 44 14 44 11 0 15 -12 15 -39z m32 20 c-7 -7 -12 -8 -12 -2 0 14
12 26 19 19 2 -3 -1 -11 -7 -17z m-2882 -14 c0 -8 -4 -12 -10 -9 -5 3 -10 10
-10 16 0 5 5 9 10 9 6 0 10 -7 10 -16z m2250 -4 c0 -5 -2 -10 -4 -10 -3 0 -8
5 -11 10 -3 6 -1 10 4 10 6 0 11 -4 11 -10z m-102 -34 c-2 -21 -17 -49 -40
-76 -35 -39 -41 -60 -17 -60 5 0 19 16 30 35 12 19 25 32 31 29 6 -4 5 -10 -3
-16 -11 -7 -11 -11 -1 -15 6 -2 12 -13 12 -24 0 -11 -6 -19 -12 -18 -25 4 -48
-14 -74 -58 -18 -31 -29 -41 -34 -33 -6 9 -17 3 -40 -21 -18 -19 -28 -27 -22
-19 15 22 35 101 33 131 0 16 9 37 24 53 14 16 29 41 32 58 4 21 9 26 16 19
18 -18 33 -13 34 11 2 17 18 37 31 38 2 0 2 -15 0 -34z m437 14 c-3 -5 -11
-10 -16 -10 -6 0 -7 5 -4 10 3 6 11 10 16 10 6 0 7 -4 4 -10z m-65 -84 c0 -2
-7 -9 -15 -16 -13 -11 -14 -10 -9 4 5 14 24 23 24 12z m-43 -53 c-3 -10 -5 -2
-5 17 0 19 2 27 5 18 2 -10 2 -26 0 -35z m-1293 -59 c3 -8 2 -12 -4 -9 -6 3
-10 10 -10 16 0 14 7 11 14 -7z m984 -69 c3 -40 -18 -60 -53 -51 -40 10 -42
33 -4 70 37 38 54 32 57 -19z m552 51 c0 -3 -4 -8 -10 -11 -5 -3 -10 -1 -10 4
0 6 5 11 10 11 6 0 10 -2 10 -4z m43 -59 c4 -31 3 -46 -3 -42 -6 3 -10 17 -10
31 0 28 -17 31 -36 7 -9 -12 -13 -13 -14 -5 0 13 48 67 54 61 2 -2 6 -26 9
-52z m-386 -9 c-3 -7 -5 -2 -5 12 0 14 2 19 5 13 2 -7 2 -19 0 -25z m363 -40
c0 -19 -16 -5 -17 14 -2 18 0 20 7 8 5 -8 10 -18 10 -22z m98 -14 c-11 -23
-28 -33 -28 -16 1 26 14 50 25 45 11 -4 11 -10 3 -29z m77 26 c3 -5 1 -10 -4
-10 -6 0 -11 5 -11 10 0 6 2 10 4 10 3 0 8 -4 11 -10z m-37 -74 c7 -16 7 -27
0 -34 -6 -6 -5 -26 4 -58 17 -57 12 -138 -8 -155 -8 -7 -18 -9 -22 -5 -4 4 1
13 11 21 13 9 17 24 15 54 -2 22 -8 43 -14 45 -13 5 -16 156 -4 156 4 0 12
-11 18 -24z m-148 -51 c0 -14 -8 -29 -20 -35 -23 -12 -25 -3 -8 35 14 32 28
32 28 0z m103 -11 c-4 -12 -8 -13 -14 -3 -9 15 -2 32 11 24 5 -3 6 -13 3 -21z
m-1193 -37 c0 -19 -10 -27 -26 -20 -11 4 -12 9 -3 19 15 18 29 18 29 1z m1139
-46 c1 -36 -2 -50 -14 -54 -10 -4 -15 0 -16 11 0 14 -2 14 -8 -2 -5 -12 -10
-16 -14 -9 -10 17 2 41 24 48 15 5 17 10 9 25 -7 13 -6 20 3 23 6 3 12 6 13 6
0 1 1 -21 3 -48z m-2925 5 c-4 -16 -1 -25 10 -29 9 -4 16 -16 16 -28 0 -18 -3
-19 -15 -9 -8 6 -19 9 -25 5 -5 -3 -10 -2 -10 4 0 5 6 12 13 15 8 4 9 8 1 11
-13 7 -6 55 7 55 5 0 7 -11 3 -24z m36 8 c0 -8 -4 -12 -10 -9 -5 3 -10 10 -10
16 0 5 5 9 10 9 6 0 10 -7 10 -16z m32 -50 c-6 -29 -6 -29 -12 -4 -3 14 -4 36
-1 49 4 23 5 24 12 5 4 -11 4 -33 1 -50z m2908 30 c0 -14 -4 -23 -9 -20 -5 3
-7 15 -4 26 7 28 13 25 13 -6z m146 -91 c16 -6 19 -33 4 -33 -6 0 -15 -10 -20
-22 l-9 -23 0 23 c-1 12 3 22 9 22 6 0 6 9 0 26 -6 14 -9 33 -9 42 1 10 4 7 6
-6 3 -13 11 -26 19 -29z m-1414 5 c-6 -6 -15 -9 -18 -5 -4 3 -4 14 0 23 5 13
9 15 18 6 9 -9 9 -15 0 -24z m1164 13 c37 7 40 -15 6 -51 -20 -22 -22 -22 -23
-4 0 10 -2 32 -4 49 -3 18 -1 24 4 17 4 -7 12 -12 17 -11z m-2879 -61 c-3 -42
-26 -48 -25 -7 1 37 6 49 18 42 5 -3 8 -19 7 -35z m1693 15 c0 -8 -2 -15 -4
-15 -2 0 -6 7 -10 15 -3 8 -1 15 4 15 6 0 10 -7 10 -15z m-1620 -17 c0 -7 -5
-20 -10 -28 -8 -12 -10 -9 -10 13 0 15 5 27 10 27 6 0 10 -6 10 -12z m2467
-35 c-3 -10 -5 -2 -5 17 0 19 2 27 5 18 2 -10 2 -26 0 -35z m260 -5 c-3 -8 -6
-5 -6 6 -1 11 2 17 5 13 3 -3 4 -12 1 -19z m53 -96 c0 -8 -1 -13 -3 -11 -1 2
-9 12 -16 22 -12 15 -12 17 3 11 9 -3 16 -13 16 -22z m60 -4 c0 -5 -7 -3 -15
6 -8 8 -15 18 -15 22 0 3 7 1 15 -6 8 -7 15 -17 15 -22z m-100 2 c0 -5 -4 -10
-10 -10 -5 0 -10 5 -10 10 0 6 5 10 10 10 6 0 10 -4 10 -10z m239 -90 c-8 -5
-5 -10 10 -15 31 -9 39 -34 31 -90 -4 -27 -8 -44 -9 -37 0 6 -5 12 -11 12 -13
0 -13 -80 0 -100 9 -13 12 -12 25 4 13 17 15 18 21 2 9 -22 5 -25 -39 -28 -21
-1 -37 -7 -37 -14 0 -7 -5 -16 -12 -20 -7 -5 -8 -3 -4 5 5 7 1 17 -8 24 -9 7
-18 29 -19 50 -2 21 -10 43 -18 48 -19 12 -29 11 -29 -1 0 -5 4 -10 10 -10 6
0 5 -10 -2 -25 -10 -22 -13 -24 -21 -10 -8 15 -11 15 -28 -4 -19 -20 -20 -38
-4 -74 8 -19 -11 -50 -26 -41 -16 9 -11 120 6 134 8 7 15 21 15 32 0 15 -5 19
-20 15 -17 -4 -20 0 -20 26 0 17 3 27 8 23 4 -4 7 -13 7 -18 0 -6 6 -13 14
-16 10 -3 12 1 8 17 -3 11 0 24 5 28 6 3 8 1 4 -5 -3 -6 -2 -13 3 -17 5 -3 14
2 19 10 7 13 10 12 20 -10 6 -14 16 -25 21 -25 13 0 22 54 19 105 -3 36 -1 40
20 39 18 -1 25 6 29 30 l7 31 8 -34 c7 -24 6 -36 -3 -41z m-107 -22 c-9 -9
-12 -7 -12 12 0 19 3 21 12 12 9 -9 9 -15 0 -24z m-1212 -131 c0 -15 -6 -11
-25 17 -14 20 -25 40 -25 43 0 4 11 -4 25 -17 14 -13 25 -32 25 -43z m1045
-25 c-9 -9 -25 19 -24 43 0 16 2 15 15 -8 9 -16 13 -32 9 -35z m-2718 -24 c-3
-8 -6 -5 -6 6 -1 11 2 17 5 13 3 -3 4 -12 1 -19z m2443 -38 c0 -5 -2 -10 -4
-10 -3 0 -8 5 -11 10 -3 6 -1 10 4 10 6 0 11 -4 11 -10z m646 -57 c-1 -26 3
-37 12 -35 6 1 12 -2 12 -7 0 -13 -26 -32 -33 -24 -9 8 -9 88 0 96 10 11 10 9
9 -30z m-3321 -29 c0 -10 -8 -20 -17 -22 -18 -3 -26 27 -11 42 12 11 28 0 28
-20z m3235 11 c7 4 3 -6 -10 -23 -17 -23 -21 -38 -16 -64 3 -18 1 -40 -5 -48
-8 -12 -9 -10 -4 8 4 13 3 28 -2 35 -11 15 -10 77 1 96 7 10 10 10 16 1 4 -7
13 -9 20 -5z m-2580 -35 c0 -5 -2 -10 -4 -10 -3 0 -8 5 -11 10 -3 6 -1 10 4
10 6 0 11 -4 11 -10z m2590 -27 c0 -24 -3 -33 -8 -25 -5 7 -7 23 -6 35 3 27 3
27 9 27 3 0 5 -17 5 -37z m-220 -14 c0 -14 -27 -10 -33 5 -4 10 0 12 14 9 10
-3 19 -9 19 -14z m-2850 -14 c0 -8 -4 -15 -9 -15 -13 0 -22 16 -14 24 11 11
23 6 23 -9z m3172 -87 c-15 -15 -25 27 -16 70 l7 37 10 -48 c6 -32 6 -52 -1
-59z m-255 68 c-3 -8 1 -20 9 -26 8 -7 14 -18 13 -24 0 -7 -2 -6 -6 2 -2 6
-11 12 -19 12 -8 0 -14 4 -14 9 0 14 11 41 17 41 3 0 3 -6 0 -14z m-36 -59
c-8 -8 -11 -3 -11 19 1 25 2 27 11 11 8 -14 8 -22 0 -30z m231 -9 c-9 -9 -12
-7 -12 12 0 19 3 21 12 12 9 -9 9 -15 0 -24z m-333 10 c0 -7 -4 -22 -9 -33 -7
-17 -9 -15 -9 13 -1 17 4 32 9 32 6 0 10 -6 9 -12z m-2739 -86 c0 -8 -6 -12
-15 -8 -8 3 -15 1 -15 -4 0 -5 -6 -8 -12 -6 -7 1 -10 1 -5 -1 16 -10 6 -39
-14 -40 -19 -2 -21 2 -15 29 3 17 6 37 6 44 0 8 6 11 15 8 10 -4 15 0 15 11 0
17 1 17 20 0 11 -10 20 -25 20 -33z m2650 21 c0 -21 -3 -24 -9 -14 -5 8 -7 20
-4 28 8 21 13 15 13 -14z m343 -1 c-6 -24 -23 -30 -23 -9 0 13 21 39 26 34 2
-2 1 -13 -3 -25z m-522 -5 c-6 -6 -11 -20 -11 -31 0 -10 -3 -17 -6 -13 -10 10
7 68 18 61 6 -4 6 -10 -1 -17z m556 1 c-3 -8 -6 -5 -6 6 -1 11 2 17 5 13 3 -3
4 -12 1 -19z m-289 -17 c-6 -10 -8 -27 -4 -37 7 -16 9 -16 15 -4 14 33 29 18
36 -35 3 -30 11 -57 16 -60 5 -4 9 -14 9 -23 0 -15 -2 -15 -10 -2 -5 8 -10 12
-10 8 0 -3 -3 -13 -6 -21 -4 -11 1 -13 20 -10 14 3 26 1 26 -3 0 -13 -55 -36
-90 -38 -28 -2 -29 -1 -32 48 -2 42 -6 51 -21 51 -10 0 -23 9 -29 19 -9 17 -8
18 16 12 16 -4 26 -2 26 5 0 28 32 119 41 114 5 -4 4 -14 -3 -24z m120 2 c15
-32 16 -63 2 -63 -5 0 -10 -6 -10 -14 0 -9 -9 -14 -20 -13 -11 1 -20 4 -20 8
0 19 14 39 26 39 8 0 14 7 14 15 0 8 -4 15 -10 15 -5 0 -10 9 -10 20 0 28 13
25 28 -7z m-78 -3 c0 -5 -4 -10 -10 -10 -5 0 -10 5 -10 10 0 6 5 10 10 10 6 0
10 -4 10 -10z m123 -25 c-7 -21 -13 -19 -13 6 0 11 4 18 10 14 5 -3 7 -12 3
-20z m-403 0 c0 -8 -2 -15 -4 -15 -2 0 -6 7 -10 15 -3 8 -1 15 4 15 6 0 10 -7
10 -15z m-2648 -30 c3 -14 1 -28 -5 -32 -5 -3 -7 -1 -3 5 3 6 2 13 -4 17 -5 3
-10 0 -10 -7 0 -9 -3 -9 -10 2 -14 21 -12 28 8 33 9 3 18 5 18 6 1 0 4 -10 6
-24z m3148 -28 c0 -16 -4 -26 -9 -22 -5 3 -13 0 -18 -7 -5 -9 -10 -3 -13 17
-7 35 17 75 32 53 4 -7 8 -26 8 -41z m34 -86 c-9 -9 -21 19 -18 42 1 12 3 31
4 42 1 11 6 -2 11 -30 4 -27 6 -52 3 -54z m46 59 c0 -5 -4 -10 -10 -10 -5 0
-10 5 -10 10 0 6 5 10 10 10 6 0 10 -4 10 -10z m-430 -31 c0 -6 -4 -7 -10 -4
-5 3 -10 11 -10 16 0 6 5 7 10 4 6 -3 10 -11 10 -16z m340 -39 c0 -5 -2 -10
-4 -10 -3 0 -8 5 -11 10 -3 6 -1 10 4 10 6 0 11 -4 11 -10z m-70 -9 c0 -6 -5
-13 -11 -17 -8 -5 -8 -8 0 -14 14 -8 24 -140 11 -140 -5 0 -12 4 -15 10 -7 12
-15 152 -9 162 7 11 24 10 24 -1z m-42 -56 c-3 -14 -2 -43 2 -65 5 -27 3 -46
-5 -57 -11 -14 -10 -19 4 -29 13 -10 14 -15 4 -25 -11 -11 -13 -10 -13 0 0 7
-6 11 -14 8 -16 -6 -29 50 -13 60 5 3 4 10 -2 16 -16 16 -13 27 4 21 12 -5 15
3 15 38 0 41 5 58 18 58 2 0 2 -11 0 -25z m-108 -27 c0 -16 -3 -19 -11 -11 -6
6 -8 16 -5 22 11 17 16 13 16 -11z m254 -18 c16 0 26 -21 26 -54 0 -12 5 -27
12 -34 9 -9 8 -12 -4 -12 -13 0 -17 -9 -16 -40 0 -48 -11 -68 -13 -22 -1 18
-2 46 -3 63 0 17 -8 36 -18 43 -9 6 -17 27 -18 46 -3 50 0 58 10 33 5 -13 16
-23 24 -23z m-354 6 c0 -3 -4 -8 -10 -11 -5 -3 -10 -1 -10 4 0 6 5 11 10 11 6
0 10 -2 10 -4z m-233 -88 c-3 -7 -5 -2 -5 12 0 14 2 19 5 13 2 -7 2 -19 0 -25z
m48 -34 c14 -11 16 -18 8 -21 -7 -3 -13 -14 -13 -25 0 -11 -3 -18 -7 -16 -53
25 -63 34 -63 51 0 16 5 18 26 13 17 -5 23 -3 19 4 -9 15 7 12 30 -6z m375
-56 c0 -5 -4 -8 -10 -8 -5 0 -10 10 -10 23 0 18 2 19 10 7 5 -8 10 -18 10 -22z
m147 -110 c-3 -8 -6 -5 -6 6 -1 11 2 17 5 13 3 -3 4 -12 1 -19z m-3180 -10
c-3 -8 -6 -5 -6 6 -1 11 2 17 5 13 3 -3 4 -12 1 -19z m3299 -17 c-13 -20 -26
-11 -26 16 0 25 1 26 16 11 9 -9 13 -21 10 -27z m-3210 -1 c-5 -45 -16 -49
-16 -7 0 21 4 37 10 37 5 0 8 -14 6 -30z m62 4 c7 4 9 -6 5 -31 -8 -49 -13
-55 -13 -13 0 28 -2 31 -15 20 -13 -11 -15 -9 -11 11 3 13 5 26 5 29 1 3 5 -1
10 -9 5 -7 14 -11 19 -7z m3059 -106 c-3 -7 -5 -2 -5 12 0 14 2 19 5 13 2 -7
2 -19 0 -25z m-3220 -10 c-3 -7 -5 -2 -5 12 0 14 2 19 5 13 2 -7 2 -19 0 -25z
m3008 -6 c-8 -8 -25 10 -19 20 4 6 9 5 15 -3 4 -7 6 -15 4 -17z m85 -4 c0 -3
-9 -6 -20 -5 -11 1 -20 5 -20 9 0 3 9 6 20 5 11 -1 20 -5 20 -9z m-407 -22 c3
-8 -2 -16 -14 -19 -21 -6 -22 -5 -13 17 8 20 20 21 27 2z m393 -52 c8 3 14 1
14 -4 0 -6 -5 -10 -12 -10 -19 0 -48 -31 -48 -52 0 -10 5 -18 10 -18 6 0 10
-7 10 -15 0 -18 -46 -13 -64 6 -8 9 -6 10 10 7 20 -5 21 -2 19 38 -1 30 2 44
11 44 6 0 15 8 19 18 8 16 8 16 12 -1 3 -11 11 -16 19 -13z m-136 -34 c-5 -16
-6 -37 -4 -47 3 -10 0 -29 -6 -43 -10 -25 -10 -25 -5 3 3 15 2 35 -3 45 -5 9
-7 34 -4 55 3 29 7 35 17 27 9 -8 11 -20 5 -40z m-263 8 c-3 -8 -6 -5 -6 6 -1
11 2 17 5 13 3 -3 4 -12 1 -19z m-2950 -70 c-3 -7 -5 -2 -5 12 0 14 2 19 5 13
2 -7 2 -19 0 -25z m3103 22 c0 -5 -5 -10 -11 -10 -5 0 -7 5 -4 10 3 6 8 10 11
10 2 0 4 -4 4 -10z m-123 -32 c-3 -7 -5 -2 -5 12 0 14 2 19 5 13 2 -7 2 -19 0
-25z m548 -54 c-23 -17 -32 -10 -15 11 7 8 17 12 23 8 6 -4 3 -11 -8 -19z
m-52 -8 c20 7 21 1 7 -27 -17 -31 -40 -24 -40 14 0 20 3 27 8 19 5 -7 16 -10
25 -6z m-233 -16 c0 -5 -10 -15 -22 -21 -23 -12 -23 -12 -4 10 21 23 26 26 26
11z m0 -92 c0 -5 -9 -3 -20 4 -11 7 -20 16 -20 20 0 5 9 3 20 -4 11 -7 20 -16
20 -20z m88 -33 c1 -38 -1 -45 -17 -45 -11 0 -22 -6 -24 -12 -3 -7 -6 4 -6 26
-1 28 5 44 21 57 11 11 22 19 22 19 1 0 3 -20 4 -45z m-440 16 c3 -8 -1 -12
-9 -9 -7 2 -15 10 -17 17 -3 8 1 12 9 9 7 -2 15 -10 17 -17z m487 -8 c-4 -57
-5 -63 -14 -63 -5 0 -11 20 -13 45 -2 36 0 45 13 45 11 0 15 -8 14 -27z m-131
-18 c-4 -8 -8 -15 -10 -15 -2 0 -4 7 -4 15 0 8 4 15 10 15 5 0 7 -7 4 -15z
m-49 -95 c3 -5 1 -10 -4 -10 -6 0 -11 5 -11 10 0 6 2 10 4 10 3 0 8 -4 11 -10z
m-2769 -47 c-10 -10 -19 5 -10 18 6 11 8 11 12 0 2 -7 1 -15 -2 -18z m98 11
c3 -8 2 -12 -4 -9 -6 3 -10 10 -10 16 0 14 7 11 14 -7z m-179 -54 c3 -5 1 -10
-4 -10 -6 0 -11 5 -11 10 0 6 2 10 4 10 3 0 8 -4 11 -10z m3112 -42 c-3 -7 -5
-2 -5 12 0 14 2 19 5 13 2 -7 2 -19 0 -25z m-2947 -4 c0 -8 -4 -12 -10 -9 -5
3 -10 13 -10 21 0 8 5 12 10 9 6 -3 10 -13 10 -21z m230 -6 c0 -4 -7 -8 -15
-8 -8 0 -15 4 -15 8 0 5 7 9 15 9 8 0 15 -4 15 -9z m-753 -115 c-3 -10 -5 -2
-5 17 0 19 2 27 5 18 2 -10 2 -26 0 -35z m628 -53 c-3 -5 -11 -10 -16 -10 -6
0 -7 5 -4 10 3 6 11 10 16 10 6 0 7 -4 4 -10z"/>
<path d="M9950 7720 c0 -5 5 -10 10 -10 6 0 10 5 10 10 0 6 -4 10 -10 10 -5 0
-10 -4 -10 -10z"/>
<path d="M7764 7673 c11 -11 46 -14 46 -3 0 6 -12 10 -27 10 -14 0 -23 -3 -19
-7z"/>
<path d="M10630 5019 c0 -5 5 -7 10 -4 6 3 10 8 10 11 0 2 -4 4 -10 4 -5 0
-10 -5 -10 -11z"/>
<path d="M10175 8420 c3 -5 8 -10 11 -10 2 0 4 5 4 10 0 6 -5 10 -11 10 -5 0
-7 -4 -4 -10z"/>
<path d="M2560 8323 c-8 -2 -112 -7 -230 -13 -211 -9 -324 -22 -367 -42 -13
-6 -51 -8 -96 -4 -65 7 -82 5 -128 -15 -30 -13 -58 -29 -62 -36 -11 -18 -24
-16 -48 8 -16 16 -23 18 -29 9 -6 -9 -12 -9 -30 0 -18 9 -25 9 -40 -5 -11 -10
-20 -13 -24 -6 -5 7 -15 7 -33 0 -26 -9 -42 0 -43 24 0 5 -14 -3 -32 -18 -18
-15 -39 -24 -50 -22 -10 3 -21 1 -24 -4 -3 -5 -10 -7 -15 -4 -5 4 -33 8 -62
10 -29 2 -60 5 -67 7 -19 4 -40 -58 -35 -102 2 -19 -2 -78 -9 -130 -7 -54 -12
-161 -10 -250 1 -87 -2 -160 -7 -166 -6 -7 -6 -21 0 -37 6 -16 6 -38 0 -59 -5
-19 -11 -66 -14 -104 -8 -127 -14 -184 -20 -194 -3 -5 -5 -65 -4 -132 2 -105
1 -260 -1 -293 -3 -44 5 -134 14 -150 5 -11 9 -24 7 -30 -10 -27 -6 -320 5
-390 11 -71 11 -150 0 -380 -1 -27 1 -62 5 -77 5 -17 2 -34 -7 -47 -10 -14
-13 -34 -9 -58 11 -76 15 -140 13 -218 -2 -150 2 -220 19 -305 9 -47 15 -118
14 -157 -1 -44 2 -73 8 -73 6 0 8 -7 5 -15 -4 -8 -10 -13 -14 -10 -15 10 -32
-54 -25 -97 10 -63 15 -79 26 -73 5 4 15 3 21 -1 16 -10 39 -14 103 -18 28 -2
59 -7 69 -11 12 -5 36 -3 63 7 24 9 46 12 49 7 7 -12 59 -11 105 2 24 8 43 8
51 3 7 -5 77 -9 155 -9 115 1 146 4 160 17 10 9 31 16 47 16 51 -1 69 34 61
112 -4 44 -1 106 10 181 18 117 18 122 -2 564 -7 180 -8 293 -1 485 3 80 2
183 -2 230 -21 217 -28 1046 -9 1064 11 12 301 64 384 70 154 11 210 18 223
29 10 8 16 7 21 -1 4 -7 25 -11 47 -11 21 1 68 -2 104 -6 36 -4 80 -7 98 -6
50 2 187 -55 207 -86 11 -16 20 -22 24 -15 10 17 68 -27 83 -63 18 -42 15
-130 -6 -193 -14 -40 -28 -61 -61 -85 -23 -18 -78 -59 -121 -93 -108 -83 -157
-106 -309 -143 -181 -43 -305 -60 -480 -65 -82 -2 -158 -7 -168 -11 -16 -7
-18 -15 -12 -69 4 -33 11 -62 16 -64 5 -2 19 -12 31 -22 l22 -18 -23 2 c-30 1
-39 -20 -12 -27 10 -2 27 -21 36 -41 10 -21 23 -35 30 -32 6 2 12 -2 12 -10 0
-8 -6 -14 -14 -14 -7 0 -13 -7 -13 -15 0 -8 7 -15 15 -15 15 0 21 -40 8 -54
-15 -15 -10 -36 8 -36 21 0 24 -12 9 -40 -7 -13 -6 -21 5 -30 8 -7 15 -18 15
-25 0 -7 9 -40 20 -75 11 -34 17 -73 14 -86 -4 -17 -1 -26 10 -30 9 -3 13 -10
10 -16 -3 -5 4 -16 16 -25 13 -9 19 -21 16 -30 -5 -12 -1 -14 14 -10 16 4 30
-10 73 -76 30 -45 80 -131 112 -192 32 -60 124 -220 205 -355 80 -135 182
-308 225 -385 44 -77 83 -141 87 -143 4 -2 8 -7 8 -12 0 -5 15 -35 34 -67 19
-32 44 -84 56 -115 16 -44 27 -59 45 -64 38 -9 87 12 161 71 38 30 76 55 86
55 10 0 18 4 18 9 0 5 8 11 18 15 9 3 31 15 47 26 17 11 49 29 73 41 23 12 42
25 42 30 0 5 7 9 16 9 9 0 33 13 54 30 21 16 46 30 55 30 26 0 75 39 75 61 0
10 -9 27 -20 36 -11 10 -20 23 -20 30 0 7 -4 13 -9 13 -5 0 -13 9 -16 20 -3
11 -12 20 -18 20 -18 0 -37 35 -31 56 3 12 -7 34 -28 59 -19 22 -42 59 -52 83
-11 23 -23 42 -28 42 -4 0 -8 9 -8 20 0 11 -4 20 -10 20 -5 0 -10 7 -10 16 0
16 -45 87 -89 140 -33 40 -65 96 -63 110 1 6 -9 23 -24 39 -14 15 -23 33 -20
41 3 7 -1 17 -8 21 -7 5 -32 45 -57 90 -24 46 -50 83 -57 83 -7 0 -11 4 -8 9
11 17 -90 205 -123 230 -17 13 -31 29 -31 34 0 6 -7 19 -17 29 -9 10 -12 18
-7 19 36 3 63 14 114 49 32 21 84 51 116 65 32 14 73 37 90 50 18 14 37 25 43
25 5 0 16 9 24 20 8 12 18 20 23 19 5 -1 22 3 39 10 16 7 37 10 47 8 21 -6 36
11 82 95 35 63 75 113 60 74 -4 -10 -1 -16 9 -16 9 0 23 24 37 60 20 53 22 73
17 153 -4 51 -9 106 -11 122 -20 113 -46 326 -42 346 2 13 0 31 -5 40 -4 8 -9
56 -10 106 -2 105 -23 264 -43 331 -46 158 -243 439 -359 514 -56 36 -305 121
-416 142 -124 24 -255 37 -291 29z m-523 -439 c-3 -3 -12 -4 -19 -1 -8 3 -5 6
6 6 11 1 17 -2 13 -5z m-227 -14 c0 -5 -2 -10 -4 -10 -3 0 -8 5 -11 10 -3 6
-1 10 4 10 6 0 11 -4 11 -10z m-13 -92 c-3 -8 -6 -5 -6 6 -1 11 2 17 5 13 3
-3 4 -12 1 -19z m-492 -178 c-1 -58 -10 -133 -18 -167 -9 -35 -11 -63 -6 -63
6 0 7 -31 3 -77 -4 -45 -3 -74 2 -70 9 9 10 14 13 44 0 9 4 14 7 10 3 -3 3
-24 -1 -46 -4 -27 -11 -38 -20 -35 -9 4 -17 -11 -25 -45 -14 -57 -30 -59 -29
-3 1 20 -2 61 -6 90 -6 44 -5 52 9 52 9 0 16 5 16 10 0 6 -4 10 -9 10 -10 0 7
79 21 96 5 7 3 14 -7 18 -19 7 -20 46 0 46 8 0 16 13 19 33 13 88 16 117 9
117 -10 0 -8 89 2 127 l8 28 8 -35 c4 -19 6 -82 4 -140z m372 138 c-3 -7 -5
-2 -5 12 0 14 2 19 5 13 2 -7 2 -19 0 -25z m135 -47 c-5 -23 -6 -41 -1 -41 13
0 5 -161 -10 -187 -19 -37 -31 -26 -25 25 3 26 7 83 9 127 4 67 7 97 14 135 1
2 6 -1 12 -7 9 -9 9 -23 1 -52z m-255 -11 c-2 -22 -7 -43 -11 -47 -4 -4 -5 11
-2 32 2 22 5 43 5 48 1 4 3 7 7 7 3 0 3 -18 1 -40z m55 -16 c-6 -48 -22 -53
-19 -6 1 23 7 40 12 39 6 -2 8 -17 7 -33z m-142 -3 c0 -6 -4 -12 -8 -15 -5 -3
-9 1 -9 9 0 8 4 15 9 15 4 0 8 -4 8 -9z m207 -33 c-3 -8 -6 -5 -6 6 -1 11 2
17 5 13 3 -3 4 -12 1 -19z m-117 -41 c0 -18 -2 -19 -10 -7 -13 20 -13 43 0 35
6 -3 10 -16 10 -28z m37 1 c-3 -8 -6 -5 -6 6 -1 11 2 17 5 13 3 -3 4 -12 1
-19z m77 -58 c-4 -35 -2 -60 4 -64 6 -4 5 -20 -4 -47 -8 -23 -14 -58 -14 -78
0 -20 -6 -63 -14 -96 l-15 -60 3 103 c2 56 0 102 -4 102 -11 0 -20 -26 -20
-56 0 -15 -6 -24 -15 -24 -12 0 -13 -4 -5 -19 14 -28 12 -61 -4 -61 -14 0 -32
-63 -22 -78 3 -4 1 -14 -4 -21 -12 -21 -23 44 -11 67 7 13 7 22 0 29 -8 8 -7
27 1 64 7 30 10 68 8 84 l-3 30 -14 -24 c-11 -20 -18 -74 -24 -203 -1 -14 -4
-13 -22 5 -15 16 -19 27 -13 40 5 9 6 22 3 27 -4 6 -1 9 6 8 6 -2 14 3 16 10
3 6 -1 12 -9 12 -10 0 -12 16 -11 62 3 72 11 108 25 108 5 0 6 10 3 21 -5 14
-2 25 6 30 24 15 32 10 27 -18 -3 -16 -2 -39 2 -53 l7 -25 6 25 c3 14 10 51
17 83 6 31 15 57 20 57 5 0 7 -6 4 -13 -2 -7 4 -21 15 -31 16 -15 19 -27 15
-70 -4 -37 -2 -47 5 -35 14 22 32 144 24 165 -4 12 -3 15 6 10 8 -5 10 -25 5
-66z m-217 13 c-3 -10 -5 -4 -5 12 0 17 2 24 5 18 2 -7 2 -21 0 -30z m-120 5
c-3 -8 -6 -5 -6 6 -1 11 2 17 5 13 3 -3 4 -12 1 -19z m-180 -20 c-3 -7 -5 -2
-5 12 0 14 2 19 5 13 2 -7 2 -19 0 -25z m309 -64 c-2 -30 -8 -60 -13 -65 -12
-12 -10 91 1 110 13 20 15 11 12 -45z m-139 -46 c-3 -7 -5 -2 -5 12 0 14 2 19
5 13 2 -7 2 -19 0 -25z m471 -24 c-10 -10 -28 6 -28 24 0 15 1 15 17 -1 9 -9
14 -19 11 -23z m-347 -79 c-2 -16 -5 -34 -8 -39 -3 -4 -7 -29 -9 -54 -2 -25
-9 -50 -15 -56 -8 -8 -9 3 -5 39 3 28 9 79 12 114 6 51 9 60 18 45 5 -11 9
-32 7 -49z m339 30 c0 -2 -7 -5 -15 -9 -9 -3 -15 0 -15 9 0 9 6 12 15 9 8 -4
15 -7 15 -9z m-10 -94 c0 -11 -4 -23 -10 -26 -6 -4 -10 5 -10 19 0 14 5 26 10
26 6 0 10 -9 10 -19z m-10 -68 c0 -20 -3 -24 -11 -16 -7 7 -9 19 -6 27 10 24
17 19 17 -11z m-353 -135 c-3 -8 -6 -5 -6 6 -1 11 2 17 5 13 3 -3 4 -12 1 -19z
m-159 -66 c2 -7 -3 -12 -12 -12 -9 0 -16 7 -16 16 0 17 22 14 28 -4z m163 -55
c-8 -8 -11 0 -10 29 1 39 1 39 11 11 7 -21 7 -32 -1 -40z m140 16 c2 -23 1
-45 -2 -47 -3 -3 -7 18 -8 46 -3 62 6 62 10 1z m78 -40 c-1 -33 -2 -35 -8 -13
-4 14 -6 31 -3 38 8 22 12 13 11 -25z m-387 -15 c0 -18 6 -42 14 -53 13 -17
16 -18 24 -5 8 12 10 11 10 -7 0 -16 -4 -21 -15 -17 -11 5 -15 -1 -15 -24 0
-17 -5 -34 -11 -37 -6 -4 -8 -13 -5 -21 3 -7 1 -16 -5 -20 -5 -3 -8 -13 -5
-22 3 -10 8 -33 12 -52 3 -19 7 -42 9 -50 2 -8 6 -41 10 -73 8 -61 25 -88 25
-40 1 24 2 25 11 10 11 -19 3 -60 -11 -52 -5 3 -11 1 -15 -5 -3 -5 0 -10 7
-10 9 0 13 -18 14 -63 1 -51 0 -57 -8 -34 -5 15 -14 27 -19 27 -6 0 -7 -6 -1
-17 6 -10 6 -29 0 -50 -5 -18 -6 -38 -3 -43 3 -6 1 -10 -6 -10 -9 0 -9 -4 1
-15 6 -8 9 -19 6 -24 -4 -5 0 -43 9 -83 8 -40 15 -94 15 -120 0 -27 5 -48 10
-48 6 0 9 -24 6 -62 -3 -42 -1 -65 7 -71 9 -7 9 -10 0 -14 -8 -3 -13 -24 -13
-55 0 -44 -2 -49 -15 -38 -8 7 -15 9 -15 6 0 -4 -13 2 -30 14 -27 19 -45 50
-20 35 5 -3 9 9 8 30 -1 19 -5 35 -10 35 -14 0 -9 43 9 62 9 11 11 18 5 18 -8
0 -12 16 -11 43 1 23 3 34 6 25 2 -10 8 -18 12 -18 11 0 22 73 13 80 -5 3 -8
31 -8 63 0 39 -4 61 -13 67 -9 5 -11 14 -6 26 13 30 5 155 -12 180 -9 15 -11
24 -4 29 6 3 11 1 11 -6 0 -7 3 -9 6 -6 4 4 2 19 -5 34 -19 47 -21 74 -6 90
15 15 21 74 8 86 -4 4 -6 31 -4 60 1 28 -2 71 -7 95 -6 23 -6 42 -2 42 4 0 7
12 7 28 1 15 3 47 6 72 3 25 6 47 6 49 1 2 4 2 7 -2 3 -3 6 -21 6 -39z m178
-96 c0 -13 -4 -31 -10 -40 -6 -12 -9 8 -8 68 0 78 1 81 10 40 4 -25 8 -55 8
-68z m135 78 c3 -5 1 -10 -4 -10 -6 0 -11 5 -11 10 0 6 2 10 4 10 3 0 8 -4 11
-10z m-85 -15 c0 -8 -4 -15 -10 -15 -5 0 -10 7 -10 15 0 8 5 15 10 15 6 0 10
-7 10 -15z m77 -37 c-3 -7 -5 -2 -5 12 0 14 2 19 5 13 2 -7 2 -19 0 -25z m213
-14 c0 -19 -4 -34 -10 -34 -5 0 -10 18 -10 41 0 24 4 38 10 34 6 -3 10 -22 10
-41z m-260 16 c0 -11 -7 -20 -15 -20 -8 0 -15 5 -15 11 0 5 5 7 10 4 6 -3 10
1 10 9 0 9 2 16 5 16 3 0 5 -9 5 -20z m49 -125 c-5 -13 -8 3 -7 45 0 63 1 63
8 20 4 -25 4 -54 -1 -65z m80 73 c0 -27 -2 -29 -8 -13 -5 11 -6 26 -4 33 8 21
13 13 12 -20z m-130 -10 c0 -28 -2 -30 -9 -13 -12 28 -12 45 0 45 6 0 10 -15
9 -32z m-24 -57 c-9 -8 -16 7 -21 45 l-5 39 15 -40 c8 -21 13 -41 11 -44z
m-191 43 c3 -8 2 -12 -4 -9 -6 3 -10 10 -10 16 0 14 7 11 14 -7z m136 -49 c0
-13 -4 -27 -10 -30 -6 -4 -10 8 -10 30 0 22 4 34 10 30 6 -3 10 -17 10 -30z
m208 -26 c-3 -33 -4 -33 -8 8 -3 23 -2 39 3 34 5 -5 7 -24 5 -42z m1692 11
c-6 -11 -15 -18 -19 -16 -4 3 -26 -7 -47 -23 -21 -15 -48 -31 -58 -35 -38 -13
15 34 62 56 23 11 45 24 48 29 11 19 24 9 14 -11z m-1811 -64 c1 -30 4 -64 6
-76 3 -18 0 -17 -26 9 -31 32 -38 61 -14 61 11 0 15 11 15 36 0 56 16 31 19
-30z m67 -89 c16 -9 19 -37 3 -37 -6 0 -9 -10 -8 -22 1 -13 -2 -31 -6 -42 -4
-10 -4 -21 2 -25 15 -9 43 -71 32 -71 -5 0 -9 -7 -9 -16 0 -8 -4 -12 -10 -9
-5 3 -10 1 -10 -4 0 -15 -16 -14 -18 2 -7 57 -9 225 -3 282 l6 70 3 -60 c2
-39 8 -63 18 -68z m-282 88 c3 -9 0 -15 -9 -15 -9 0 -12 6 -9 15 4 8 7 15 9
15 2 0 5 -7 9 -15z m130 -37 c4 -18 6 -42 5 -53 -2 -27 -2 -55 0 -85 2 -50 0
-70 -8 -70 -10 0 -10 2 -13 133 -3 106 4 137 16 75z m1736 15 c-1 -16 -31 -47
-47 -49 -9 -2 -28 -6 -42 -9 -22 -6 -23 -4 -11 10 13 16 77 54 93 55 4 0 7 -3
7 -7z m180 -23 c0 -5 -3 -10 -7 -10 -5 0 -23 -9 -40 -20 -27 -16 -31 -23 -24
-42 4 -13 14 -23 22 -23 8 0 24 -4 37 -8 16 -6 37 -1 78 22 30 16 51 24 45 17
-6 -7 -8 -16 -4 -19 3 -4 -1 -7 -10 -7 -21 0 -22 -29 -2 -36 8 -4 21 -1 28 4
7 6 19 7 26 3 10 -6 7 -15 -13 -36 -14 -15 -28 -35 -31 -44 -3 -10 -34 -37
-70 -60 -36 -24 -65 -47 -65 -53 0 -5 -6 -8 -13 -6 -6 2 -26 -7 -42 -19 -36
-25 -189 -97 -228 -107 -19 -4 -33 -2 -43 9 -19 18 -12 45 11 45 9 0 14 4 11
9 -3 5 -15 7 -27 4 -15 -4 -22 0 -26 16 -3 12 -13 21 -25 21 -24 0 -70 -23
-87 -44 -8 -9 -22 -16 -33 -16 -18 0 -138 -60 -166 -82 -7 -6 -22 -12 -35 -13
-39 -5 -126 -37 -138 -51 -8 -10 -36 -14 -98 -14 -75 0 -88 3 -98 20 -15 23
-7 51 13 43 8 -3 14 0 14 6 0 6 -6 11 -14 11 -21 0 -31 21 -15 31 11 6 11 11
1 21 -18 18 -16 52 4 44 13 -5 15 -1 12 18 -4 20 0 27 23 35 36 12 38 30 4 23
-25 -4 -35 11 -15 23 15 9 135 9 149 0 9 -5 6 -12 -13 -24 -14 -10 -23 -21
-19 -25 4 -4 1 -11 -7 -16 -13 -8 -13 -10 0 -10 9 0 26 7 38 16 21 14 22 14
22 -12 0 -24 3 -26 28 -19 15 3 34 13 44 21 9 9 18 11 22 6 3 -6 14 -8 24 -5
10 2 24 -3 31 -11 12 -14 8 -16 -28 -17 -22 -1 -45 -3 -51 -4 -5 -1 -17 -3
-25 -4 -8 0 -15 -5 -15 -10 0 -11 103 -4 148 10 23 8 32 16 28 26 -4 10 4 18
24 26 30 12 40 27 18 27 -9 0 -8 4 2 10 13 9 13 10 0 10 -8 1 -4 6 10 12 42
18 5 20 -58 4 -73 -19 -72 -19 -72 -2 0 19 363 106 379 90 2 -2 -13 -11 -32
-20 -20 -10 -34 -21 -31 -26 3 -4 0 -8 -5 -8 -6 0 -11 5 -11 10 0 14 -51 2
-69 -16 -21 -19 -10 -25 51 -27 48 -2 53 -4 52 -24 0 -16 5 -23 17 -23 12 0
16 -5 13 -15 -5 -12 2 -15 29 -15 21 0 37 6 40 15 7 17 -9 30 -18 15 -7 -12
-25 -13 -25 -2 0 4 15 14 34 20 19 7 40 20 48 29 12 14 10 16 -15 11 -37 -7
-43 7 -9 21 16 7 42 24 58 39 17 15 42 35 57 45 16 10 25 23 20 29 -5 9 -8 9
-11 0 -2 -7 -9 -12 -17 -12 -7 0 -18 -6 -24 -14 -7 -9 -32 -14 -64 -14 l-52
-1 39 19 c21 11 52 30 70 43 17 13 66 41 109 62 43 21 80 42 83 46 7 12 24 11
24 -1z m-1703 -22 c2 -18 0 -20 -7 -8 -12 18 -13 30 -2 30 4 0 9 -10 9 -22z
m0 -48 c1 -11 -2 -20 -8 -20 -10 0 -12 23 -2 33 9 9 9 10 10 -13z m-133 -16
c17 -16 21 -34 9 -34 -5 0 -13 11 -20 25 -13 29 -11 31 11 9z m1386 0 c0 -13
-7 -15 -30 -11 -16 4 -32 2 -36 -4 -3 -6 -13 -9 -22 -7 -9 2 -25 -5 -34 -14
-21 -21 -54 -23 -73 -4 -11 11 -5 15 43 26 31 7 71 16 87 20 48 13 65 11 65
-6z m-1513 -26 c-3 -8 -6 -5 -6 6 -1 11 2 17 5 13 3 -3 4 -12 1 -19z m261 -59
c-3 -39 -2 -87 2 -107 4 -21 10 -62 13 -92 6 -50 5 -53 -8 -36 -8 11 -13 30
-10 44 2 13 0 47 -6 76 -9 47 -3 186 9 186 2 0 2 -32 0 -71z m-144 -4 c15 -11
26 -95 14 -95 -5 0 -8 7 -8 15 0 8 -8 16 -17 16 -17 1 -17 2 0 6 9 2 17 14 17
25 0 17 -2 18 -15 8 -13 -11 -15 -6 -14 36 1 27 4 38 6 24 2 -14 10 -30 17
-35z m26 41 c0 -3 -4 -8 -10 -11 -5 -3 -10 -1 -10 4 0 6 5 11 10 11 6 0 10 -2
10 -4z m1125 -6 c-3 -5 -11 -10 -16 -10 -6 0 -7 5 -4 10 3 6 11 10 16 10 6 0
7 -4 4 -10z m-258 -33 c2 -3 -17 -8 -43 -12 -29 -4 -50 -3 -57 4 -8 8 -5 11
11 11 12 0 22 4 22 9 0 9 56 -2 67 -12z m-126 -10 c-13 -13 -26 -3 -16 12 3 6
11 8 17 5 6 -4 6 -10 -1 -17z m259 -97 c0 -5 -7 -10 -16 -10 -8 0 -12 5 -9 10
3 6 10 10 16 10 5 0 9 -4 9 -10z m-745 -67 c-4 -12 -8 -14 -17 -5 -9 9 -8 18
3 39 14 26 14 26 17 4 2 -12 1 -30 -3 -38z m-289 0 c-11 -11 -19 6 -11 24 8
17 8 17 12 0 3 -10 2 -21 -1 -24z m94 -68 c-7 -49 -7 -50 -9 -10 -1 22 -3 58
-6 80 l-5 40 14 -30 c9 -21 11 -45 6 -80z m-63 73 c-3 -8 -6 -5 -6 6 -1 11 2
17 5 13 3 -3 4 -12 1 -19z m-83 -23 c3 -8 1 -15 -4 -15 -6 0 -10 7 -10 15 0 8
2 15 4 15 2 0 6 -7 10 -15z m86 -6 c0 -4 3 -14 6 -22 4 -12 0 -14 -15 -10 -24
6 -29 40 -6 40 8 0 15 -4 15 -8z m1390 -69 c11 -20 -1 -33 -32 -35 -17 -2 -30
21 -33 56 -1 14 3 15 27 7 16 -6 33 -18 38 -28z m-1115 -18 c2 -20 -1 -32 -8
-32 -7 0 -13 17 -14 41 -1 48 15 40 22 -9z m-263 -4 c-9 -9 -12 -7 -12 12 0
19 3 21 12 12 9 -9 9 -15 0 -24z m-81 -57 c-3 -108 -20 -117 -20 -11 -1 71 2
91 11 82 6 -6 10 -37 9 -71z m139 -15 c-7 -7 -10 1 -9 25 0 32 1 33 10 10 6
-16 6 -28 -1 -35z m1344 29 c-4 -10 0 -15 16 -15 17 0 20 -4 15 -21 -5 -16 -4
-19 5 -14 9 5 11 4 6 -3 -10 -17 32 -91 59 -104 26 -12 33 -32 15 -43 -7 -4
-4 -17 7 -35 9 -16 20 -27 25 -24 4 3 5 -2 2 -10 -3 -9 4 -21 19 -31 14 -9 25
-25 25 -39 0 -13 11 -41 26 -62 14 -21 26 -42 26 -46 0 -13 44 -78 53 -78 5 0
5 5 1 12 -4 7 -3 8 5 4 6 -4 9 -16 6 -25 -3 -10 1 -24 10 -31 8 -7 15 -17 15
-22 0 -5 13 -28 28 -51 15 -23 39 -64 52 -91 14 -27 41 -65 60 -85 19 -19 27
-29 18 -22 -24 18 -23 8 5 -42 13 -23 50 -88 82 -145 36 -65 66 -107 80 -112
12 -5 25 -16 29 -25 3 -9 2 -13 -4 -10 -14 9 -12 -8 5 -41 16 -32 19 -54 7
-54 -4 0 -50 70 -101 155 -51 86 -101 159 -110 164 -9 5 -13 13 -9 16 7 8 -63
148 -88 176 -8 8 -14 21 -14 27 0 7 -16 34 -36 62 -20 27 -32 50 -28 50 4 0
-2 10 -13 23 -11 12 -28 36 -37 52 -9 17 -25 44 -35 60 -10 17 -16 35 -14 42
3 6 -5 16 -16 22 -13 7 -18 17 -14 27 4 10 -7 26 -30 45 -20 17 -36 33 -35 37
3 11 -85 182 -125 244 -35 55 -35 56 -14 66 12 6 23 11 24 11 1 1 0 -6 -3 -14z
m-1611 -8 c3 -8 1 -20 -4 -28 -6 -10 -9 -7 -9 14 0 29 5 35 13 14z m-171 -19
c-7 -7 -12 -8 -12 -2 0 14 12 26 19 19 2 -3 -1 -11 -7 -17z m508 -18 c0 -22
-4 -40 -8 -40 -7 0 -8 29 -4 68 4 28 12 9 12 -28z m1090 -52 c0 -15 -28 -8
-34 8 -10 25 4 37 20 17 7 -10 14 -21 14 -25z m-1161 -35 c-12 -32 -12 -66 1
-58 6 3 10 0 10 -9 0 -8 -6 -16 -12 -18 -10 -4 -10 -10 -2 -29 9 -19 8 -36 -6
-79 l-17 -55 -8 48 c-4 27 -4 74 0 105 4 32 7 75 7 97 1 51 8 63 24 40 9 -12
10 -24 3 -42z m62 -54 c-6 -16 -8 -36 -5 -44 4 -8 1 -15 -6 -15 -10 0 -11 15
-7 58 4 32 10 67 14 78 13 31 16 -42 4 -77z m1131 38 c10 -19 9 -20 -4 -10 -8
7 -18 10 -21 7 -3 -4 -5 3 -4 14 1 24 12 20 29 -11z m-92 -8 c15 -28 5 -23
-15 7 -9 15 -12 23 -6 20 6 -4 16 -16 21 -27z m-1048 -134 c5 -43 -8 -47 -14
-5 -4 26 -1 40 8 40 1 0 4 -16 6 -35z m-154 -26 c-3 -8 -7 -3 -11 10 -4 17 -3
21 5 13 5 -5 8 -16 6 -23z m1250 6 c-3 -3 -9 2 -12 12 -6 14 -5 15 5 6 7 -7
10 -15 7 -18z m162 -45 c6 0 10 -8 10 -18 0 -10 5 -23 10 -28 6 -6 19 -27 29
-47 18 -35 18 -37 1 -37 -13 0 -20 10 -25 33 -9 45 -26 77 -42 77 -7 0 -13 6
-13 13 0 6 -3 23 -6 37 -5 25 -5 25 11 -2 8 -16 20 -28 25 -28z m-1470 -9 c0
-6 -4 -13 -10 -16 -5 -3 -10 1 -10 9 0 9 5 16 10 16 6 0 10 -4 10 -9z m210 -1
c0 -5 -4 -10 -10 -10 -5 0 -10 5 -10 10 0 6 5 10 10 10 6 0 10 -4 10 -10z
m1134 -6 c3 -8 2 -12 -4 -9 -6 3 -10 10 -10 16 0 14 7 11 14 -7z m-1524 -35
c15 -28 5 -23 -15 7 -9 15 -12 23 -6 20 6 -4 16 -16 21 -27z m1571 -11 c2 5
13 6 24 2 18 -7 18 -9 -9 -21 -25 -12 -30 -11 -42 6 -20 27 -17 41 5 21 10
-10 21 -13 22 -8z m80 -90 c9 -17 8 -18 -9 -9 -11 6 -22 17 -25 25 -9 22 21 8
34 -16z m-1626 -69 c5 -7 9 -24 9 -38 1 -13 7 -26 15 -29 9 -3 11 0 7 9 -4 8
0 5 8 -5 18 -22 22 -86 6 -86 -5 0 -10 -7 -10 -17 0 -9 -12 -31 -26 -50 -17
-23 -23 -40 -19 -54 5 -14 3 -19 -3 -15 -6 3 -13 29 -17 56 -4 27 -11 52 -16
56 -5 3 -9 10 -9 15 0 6 4 8 9 5 15 -10 21 22 22 127 1 67 4 91 8 71 4 -17 12
-37 16 -45z m1603 20 c-3 -9 -12 0 -22 21 l-18 35 22 -21 c12 -12 20 -28 18
-35z m175 26 c4 -8 3 -16 -1 -19 -4 -3 -9 4 -9 15 -2 23 3 25 10 4z m-113 -30
c0 -5 -5 -3 -10 5 -5 8 -10 20 -10 25 0 6 5 3 10 -5 5 -8 10 -19 10 -25z m74
14 c-3 -6 1 -20 10 -33 14 -23 14 -23 -9 -12 -13 6 -20 13 -15 16 5 3 5 12 0
20 -14 22 -12 30 5 24 8 -4 12 -10 9 -15z m87 -62 c11 -10 19 -23 19 -30 -1
-7 -12 2 -25 18 -14 17 -25 37 -24 45 0 13 1 13 6 0 3 -8 14 -23 24 -33z
m-1440 -114 c-2 -7 -8 -13 -13 -13 -6 0 -7 7 -4 16 3 9 7 46 8 82 l2 67 5 -70
c3 -38 4 -76 2 -82z m1316 111 c-1 -2 -13 -1 -26 3 -16 4 -19 8 -10 14 12 7
45 -9 36 -17z m-1476 -44 c-5 -25 -9 -35 -10 -24 -1 28 11 92 16 79 1 -6 -1
-30 -6 -55z m1573 9 c3 -17 15 -42 26 -56 22 -28 21 -33 -7 -37 -11 -2 -18
-12 -19 -25 -2 -32 -8 -34 -35 -12 l-24 19 28 11 c26 10 39 41 16 41 -5 0 -8
-4 -5 -8 2 -4 -4 -13 -14 -20 -16 -10 -21 -8 -31 9 -6 12 -7 19 -2 16 14 -9
39 16 47 47 6 23 4 27 -8 23 -9 -4 -18 -2 -21 3 -5 8 10 18 31 19 6 1 14 -13
18 -30z m-114 -54 c0 -16 -2 -17 -9 -5 -6 8 -8 17 -5 21 2 4 -3 12 -11 19 -8
7 -15 18 -15 24 1 20 40 -38 40 -59z m-1374 5 c0 -11 -4 -20 -8 -20 -4 0 -8 9
-8 20 0 11 4 20 8 20 4 0 8 -9 8 -20z m1584 -22 c0 -6 -7 -5 -15 2 -8 7 -15
17 -15 22 0 6 7 5 15 -2 8 -7 15 -17 15 -22z m-1593 -30 c-3 -8 -6 -5 -6 6 -1
11 2 17 5 13 3 -3 4 -12 1 -19z m1287 6 c3 -8 2 -12 -4 -9 -6 3 -10 10 -10 16
0 14 7 11 14 -7z m156 -46 c43 -76 48 -91 21 -58 -27 33 -73 120 -63 120 4 0
23 -28 42 -62z m-1373 10 c-3 -7 -5 -2 -5 12 0 14 2 19 5 13 2 -7 2 -19 0 -25z
m1555 -70 c8 -3 5 -9 -9 -16 -20 -11 -24 -9 -38 17 -11 23 -12 31 -2 34 7 4 6
6 -4 6 -23 1 -41 25 -33 45 5 13 14 6 40 -33 18 -27 39 -51 46 -53z m-312 67
c7 -9 8 -15 2 -15 -5 0 -12 7 -16 15 -3 8 -4 15 -2 15 2 0 9 -7 16 -15z m329
-21 c23 -38 23 -56 1 -29 -7 8 -20 15 -29 15 -12 0 -13 2 -3 8 7 5 10 16 6 25
-11 29 3 18 25 -19z m-79 -54 c0 -5 -5 -10 -10 -10 -7 0 -8 -14 -4 -37 8 -44
-2 -40 -15 5 -6 20 -5 34 2 41 14 14 27 14 27 1z m118 -25 c-3 -3 -9 2 -12 12
-6 14 -5 15 5 6 7 -7 10 -15 7 -18z m-299 -25 c11 -24 11 -24 -3 -6 -9 11 -16
24 -16 30 0 12 5 7 19 -24z m150 -28 c8 -14 12 -14 34 0 29 19 55 5 36 -19 -9
-10 -7 -13 7 -14 11 0 14 -3 7 -5 -8 -4 -7 -11 5 -25 9 -11 17 -25 17 -32 0
-7 5 -12 12 -12 6 0 15 -3 19 -7 17 -17 24 -6 10 14 -9 12 -16 36 -16 53 -1
31 -20 65 -38 65 -12 0 -23 26 -15 34 16 15 13 20 118 -168 81 -146 85 -154
70 -160 -18 -6 -27 7 -19 28 4 11 1 16 -10 16 -9 0 -21 11 -26 25 -5 14 -14
25 -20 25 -13 0 -13 -17 1 -25 5 -4 9 -21 7 -38 -2 -23 1 -32 12 -33 32 -3 34
-6 15 -14 -13 -5 -26 -3 -38 8 -9 8 -19 13 -22 11 -7 -7 36 -89 46 -89 5 0 9
-6 9 -14 0 -8 10 -32 22 -52 12 -21 17 -35 11 -31 -7 4 -18 20 -26 35 -29 55
-43 78 -64 109 -27 36 -29 53 -8 53 8 0 15 4 15 9 0 5 -7 16 -15 25 -8 8 -15
17 -15 21 0 3 -11 23 -25 43 -14 20 -25 45 -25 54 0 11 -8 18 -19 18 -19 0
-19 -2 4 -42 14 -24 25 -46 25 -50 0 -15 -18 -8 -24 10 -3 9 -10 24 -15 32
-21 33 -39 80 -30 80 5 0 9 -6 10 -12 0 -7 4 -4 8 7 9 22 -4 45 -25 45 -8 0
-11 -6 -7 -17 15 -38 -19 1 -43 50 -22 46 -22 49 -4 28 11 -13 25 -31 29 -39z
m206 -37 c15 -27 46 -84 68 -125 23 -41 45 -78 51 -82 6 -4 8 -9 5 -12 -3 -3
-19 10 -36 29 -17 19 -29 36 -26 39 6 6 -43 101 -78 149 -16 22 -29 47 -29 56
0 20 12 7 45 -54z m-2004 -12 c13 -4 19 -14 19 -35 0 -16 5 -38 10 -48 6 -11
6 -21 1 -24 -5 -3 -12 -40 -16 -81 -4 -41 -11 -75 -16 -75 -5 0 -9 7 -9 15 0
8 -4 15 -10 15 -5 0 -10 -5 -10 -11 0 -5 -13 -2 -30 8 -31 18 -42 40 -15 29 9
-3 15 0 15 9 0 8 -4 15 -10 15 -15 0 -12 28 4 37 11 6 16 32 18 93 3 79 19
126 26 79 2 -12 12 -24 23 -26z m13 31 c3 -8 2 -12 -4 -9 -6 3 -10 10 -10 16
0 14 7 11 14 -7z m1676 -10 c0 -14 -3 -14 -15 -4 -8 7 -15 14 -15 16 0 2 7 4
15 4 8 0 15 -7 15 -16z m-1397 -24 c-3 -11 -7 -20 -9 -20 -2 0 -4 9 -4 20 0
11 4 20 9 20 5 0 7 -9 4 -20z m74 -62 c-5 -63 -18 -139 -33 -187 -3 -9 -8 -11
-14 -5 -5 5 -3 31 6 64 8 30 14 76 14 102 0 46 14 98 26 98 3 0 4 -33 1 -72z
m-137 42 c12 -8 9 -10 -12 -10 -30 0 -35 -9 -17 -27 16 -16 1 -37 -16 -23 -16
13 -14 32 4 54 16 19 21 19 41 6z m-296 -26 c3 -8 2 -12 -4 -9 -6 3 -10 10
-10 16 0 14 7 11 14 -7z m208 -47 c-2 -34 -8 -78 -12 -97 -7 -25 -7 -13 -4 40
5 62 3 78 -10 89 -22 18 -20 26 7 29 22 1 23 -1 19 -61z m159 33 c6 0 8 -14 4
-32 -4 -18 -6 -45 -6 -60 1 -21 -3 -26 -14 -22 -11 5 -15 -1 -15 -26 0 -28 -2
-31 -15 -20 -17 14 -20 65 -5 75 5 3 6 12 3 21 -3 8 3 34 13 57 12 27 20 35
22 24 2 -9 8 -17 13 -17z m-61 -11 c0 -11 -4 -18 -10 -14 -5 3 -7 12 -3 20 7
21 13 19 13 -6z m1505 -9 c3 -5 1 -10 -4 -10 -6 0 -11 5 -11 10 0 6 2 10 4 10
3 0 8 -4 11 -10z m-1268 -22 c-3 -8 -6 -5 -6 6 -1 11 2 17 5 13 3 -3 4 -12 1
-19z m-550 -20 c-3 -7 -5 -2 -5 12 0 14 2 19 5 13 2 -7 2 -19 0 -25z m266 -36
c-4 -17 -2 -23 6 -18 6 4 11 13 11 21 0 8 3 16 8 18 10 7 2 -106 -9 -117 -5
-6 -9 -1 -9 13 0 19 -3 21 -14 12 -20 -17 -29 16 -20 74 5 37 9 43 20 34 9 -7
11 -21 7 -37z m282 6 c-20 -72 -37 -107 -51 -101 -16 6 -18 41 -3 63 8 12 10
9 6 -13 -3 -18 0 -26 7 -24 6 2 12 12 14 23 4 25 23 74 29 74 2 0 2 -10 -2
-22z m1456 -25 c13 -16 12 -17 -3 -4 -10 7 -18 15 -18 17 0 8 8 3 21 -13z
m-106 -41 c-8 -8 -25 10 -19 20 4 6 9 5 15 -3 4 -7 6 -15 4 -17z m269 -44 c-9
-14 -23 2 -17 18 4 12 8 13 14 3 4 -7 5 -17 3 -21z m-64 2 c0 -5 5 -10 11 -10
14 0 38 -30 39 -48 0 -10 -8 -9 -30 4 -17 11 -25 21 -19 25 7 4 5 8 -5 12 -18
7 -22 27 -6 27 6 0 10 -4 10 -10z m159 -49 c-2 -6 -10 2 -17 17 -11 25 -11 25
4 10 9 -9 15 -21 13 -27z m-69 19 c0 -5 -4 -10 -9 -10 -6 0 -13 5 -16 10 -3 6
1 10 9 10 9 0 16 -4 16 -10z"/>
<path d="M1510 7399 c0 -5 5 -7 10 -4 6 3 10 8 10 11 0 2 -4 4 -10 4 -5 0 -10
-5 -10 -11z"/>
<path d="M1290 5894 c0 -8 5 -12 10 -9 6 4 8 11 5 16 -9 14 -15 11 -15 -7z"/>
<path d="M1274 5765 c-4 -14 -3 -29 0 -33 9 -8 26 18 26 41 0 26 -19 20 -26
-8z"/>
<path d="M1573 6354 c-3 -8 -1 -20 6 -27 8 -8 11 -4 11 16 0 30 -7 35 -17 11z"/>
<path d="M3220 6430 c0 -5 5 -10 10 -10 6 0 10 5 10 10 0 6 -4 10 -10 10 -5 0
-10 -4 -10 -10z"/>
<path d="M3105 6330 c-3 -5 1 -10 9 -10 9 0 16 5 16 10 0 6 -4 10 -9 10 -6 0
-13 -4 -16 -10z"/>
<path d="M2790 6320 c-8 -5 -11 -12 -7 -16 4 -4 13 -2 19 4 15 15 7 24 -12 12z"/>
<path d="M2598 6113 c-37 -6 -36 -23 2 -23 20 0 30 5 30 15 0 8 -1 14 -2 14
-2 -1 -15 -4 -30 -6z"/>
<path d="M3285 4970 c3 -5 11 -10 16 -10 6 0 7 5 4 10 -3 6 -11 10 -16 10 -6
0 -7 -4 -4 -10z"/>
<path d="M3285 4910 c20 -22 31 -20 22 5 -4 8 -14 15 -23 15 -16 0 -16 -2 1
-20z"/>
<path d="M1300 5040 c0 -19 11 -26 23 -14 8 8 -3 34 -14 34 -5 0 -9 -9 -9 -20z"/>
<path d="M1290 4991 c0 -13 24 -41 34 -41 3 0 6 10 6 22 0 12 -3 18 -7 15 -3
-4 -12 -2 -20 4 -10 9 -13 8 -13 0z"/>
<path d="M1291 4934 c0 -11 3 -14 6 -6 3 7 2 16 -1 19 -3 4 -6 -2 -5 -13z"/>
<path d="M10892 8301 c-12 -17 -19 -37 -16 -46 10 -24 27 -13 36 23 5 18 13
32 18 32 6 0 10 5 10 10 0 20 -27 9 -48 -19z"/>
<path d="M10819 8276 c-9 -9 6 -110 17 -113 18 -6 26 58 10 76 -7 9 -11 22 -9
29 4 11 -9 17 -18 8z"/>
<path d="M10880 8220 c0 -5 5 -10 11 -10 5 0 7 5 4 10 -3 6 -8 10 -11 10 -2 0
-4 -4 -4 -10z"/>
<path d="M10816 8111 c-10 -11 -16 -27 -14 -36 2 -14 6 -13 25 7 13 14 19 28
14 36 -6 9 -12 8 -25 -7z"/>
<path d="M6500 7984 c-63 -6 -155 -15 -205 -18 -49 -4 -112 -10 -140 -13 -27
-3 -327 -5 -665 -4 -508 1 -617 4 -630 15 -23 22 -128 16 -145 -7 -13 -18 -14
-18 -24 1 -9 16 -18 18 -63 15 -34 -3 -59 -11 -69 -23 -15 -17 -16 -17 -26 0
-10 15 -18 16 -60 8 -52 -10 -53 -10 -131 -5 -47 3 -56 0 -73 -21 -10 -14 -19
-32 -19 -41 0 -11 -4 -10 -16 7 -8 12 -28 29 -44 37 -25 13 -33 13 -72 -1 -89
-31 -106 -60 -72 -125 11 -21 13 -44 9 -78 -8 -62 6 -75 58 -54 40 16 49 33
17 33 -11 0 -20 7 -20 15 0 8 6 15 14 15 16 0 10 40 -7 51 -5 4 -7 19 -3 34 6
22 9 25 21 15 8 -7 15 -19 15 -26 0 -18 9 -18 32 3 17 16 18 15 16 -7 -4 -34
20 -37 28 -3 12 55 16 63 25 58 5 -4 9 -17 9 -31 0 -15 6 -24 15 -24 10 0 15
-10 15 -30 0 -20 5 -30 15 -30 16 0 18 10 17 73 -1 26 3 37 11 34 7 -2 11 -21
10 -50 -2 -48 12 -72 24 -40 9 27 34 53 44 47 5 -3 9 -23 9 -44 0 -21 5 -42
10 -45 10 -6 14 7 11 32 -1 7 8 26 20 43 17 23 26 27 36 19 21 -18 15 -57 -12
-75 -22 -14 -38 -43 -17 -30 4 2 16 -2 26 -9 14 -11 15 -17 7 -27 -7 -7 -18
-22 -25 -32 -13 -19 -14 -19 -44 5 -17 13 -31 31 -32 39 -1 23 -13 37 -37 44
-21 7 -23 4 -24 -36 0 -38 -1 -40 -10 -19 -5 14 -7 31 -4 39 3 9 -1 12 -13 10
-18 -4 -21 -37 -8 -108 4 -23 3 -26 -2 -11 -11 34 -32 39 -32 7 0 -30 -3 -31
-35 -10 -14 9 -25 12 -26 8 -1 -20 -18 33 -18 59 -1 22 -5 28 -18 25 -10 -2
-17 -10 -15 -18 2 -7 0 -20 -3 -29 -6 -14 -8 -14 -19 2 -12 15 -14 11 -20 -32
-11 -85 14 -181 29 -111 8 38 25 39 25 1 0 -17 5 -33 10 -36 12 -8 13 -48 1
-60 -13 -15 -25 -155 -13 -155 5 0 12 7 16 15 3 8 12 15 20 15 9 0 21 19 29
48 9 29 15 38 16 25 1 -23 16 -32 23 -13 2 5 12 7 24 4 18 -5 21 -13 20 -72 0
-37 -1 -55 -4 -39 -2 15 -7 27 -12 27 -12 0 -20 -41 -14 -75 3 -16 6 -40 7
-52 3 -28 17 -42 18 -17 0 18 1 18 9 -1 13 -31 12 -46 -4 -43 -8 2 -15 -1 -15
-7 0 -5 7 -9 14 -7 18 3 16 -49 -3 -63 -7 -5 -16 -30 -21 -55 l-9 -45 -1 48
c-1 52 -21 66 -21 15 0 -27 -6 -36 -32 -48 -18 -8 -34 -21 -36 -27 -5 -18 13
-16 32 3 9 8 16 11 16 5 0 -6 7 -11 15 -11 8 0 15 -8 15 -17 0 -10 7 -31 16
-48 14 -27 13 -37 -7 -122 -11 -51 -23 -93 -25 -93 -3 0 -4 39 -3 88 2 106 -2
121 -46 149 -32 20 -35 21 -45 5 -7 -13 -9 -6 -10 31 0 26 -4 47 -10 47 -10 0
-14 -37 -12 -90 1 -14 -1 -19 -4 -12 -3 6 -9 12 -13 12 -9 0 -6 -170 2 -207 4
-15 2 -20 -7 -17 -9 3 -12 -31 -13 -145 0 -82 -4 -155 -9 -163 -5 -7 -10 -29
-11 -48 -1 -19 -4 -65 -7 -102 -2 -37 -7 -72 -11 -77 -3 -6 -5 -165 -4 -353 2
-407 2 -423 -4 -878 -5 -401 -3 -418 55 -406 17 3 39 6 49 6 9 0 25 7 34 16
11 12 19 13 29 5 7 -6 16 -8 20 -4 4 4 44 9 89 10 163 7 177 8 177 15 0 5 7 8
15 8 12 0 13 4 5 19 -15 28 -13 33 9 21 29 -15 49 -12 53 7 3 16 5 16 24 -3
28 -28 74 -40 74 -19 0 8 -9 15 -20 15 -11 0 -20 5 -20 10 0 6 5 10 11 10 18
0 50 -21 44 -29 -8 -14 44 -19 55 -6 6 7 7 20 4 30 -6 14 -3 16 14 10 16 -5
22 -2 22 10 0 9 5 13 10 10 6 -3 10 -17 10 -30 0 -28 15 -41 24 -20 7 18 42
19 76 2 46 -24 61 -12 58 46 -3 50 -2 52 22 50 77 -4 131 -4 280 2 91 3 169
10 174 15 5 5 17 5 28 -1 14 -7 24 -7 34 2 8 6 17 9 21 6 3 -4 12 -2 20 4 10
9 13 8 13 -1 0 -9 14 -11 53 -6 28 3 104 8 167 12 132 6 165 10 180 19 5 3 10
2 10 -2 0 -5 17 -9 38 -9 20 0 127 -3 237 -8 204 -9 311 -9 355 -1 14 2 57 7
95 11 39 3 93 8 120 11 28 3 88 7 135 8 47 2 91 3 99 4 21 2 10 129 -13 146
-11 8 -13 15 -7 20 15 9 14 79 -2 140 -8 30 -12 97 -11 170 1 66 -2 125 -8
132 -6 7 -5 26 1 51 6 22 8 53 5 69 -3 17 -1 41 6 54 11 20 10 25 -11 42 -18
15 -32 17 -64 12 -140 -23 -401 -54 -455 -55 -36 -1 -218 1 -405 4 -187 2
-371 1 -410 -4 -38 -4 -117 -11 -175 -15 -58 -4 -118 -9 -135 -10 -16 -1 -112
-6 -212 -10 l-183 -7 -1 33 c0 19 -2 57 -4 84 -1 28 -6 113 -10 190 -4 77 -7
142 -7 145 -1 21 9 25 65 26 174 3 281 3 288 -1 4 -3 10 -1 13 4 4 6 18 6 35
1 16 -4 32 -6 34 -3 12 11 648 0 667 -12 4 -2 22 0 40 5 23 7 46 6 72 -2 29
-8 42 -8 50 0 18 18 19 68 2 118 -8 25 -16 55 -16 67 0 12 -7 60 -15 105 -8
46 -16 134 -18 195 -3 61 -9 115 -14 120 -5 5 -5 24 0 45 9 42 5 154 -6 172
-6 9 -33 11 -104 5 -53 -4 -170 -6 -261 -5 -91 2 -305 4 -476 5 -172 1 -328 5
-348 9 -35 7 -36 9 -36 49 0 23 -3 111 -7 195 l-6 152 49 1 c27 0 227 2 444 4
330 3 510 8 600 15 8 0 43 -2 76 -6 34 -4 69 -2 78 3 10 6 41 6 74 2 36 -5 72
-4 97 3 22 6 69 12 105 13 130 4 191 11 199 23 13 21 65 15 114 -13 43 -24 51
-26 73 -15 29 16 31 52 10 150 -20 90 -40 221 -37 245 6 65 0 158 -13 188 -9
24 -11 37 -4 39 11 4 12 143 2 185 -6 23 -10 24 -83 22 -42 -2 -128 -8 -191
-15z m-1909 -120 c10 -12 8 -17 -7 -29 -10 -7 -20 -9 -22 -4 -7 18 -22 8 -22
-14 0 -13 11 -34 24 -46 23 -21 23 -24 8 -40 -16 -16 -18 -16 -31 2 -16 23
-10 127 10 171 l13 28 7 -26 c4 -15 13 -34 20 -42z m96 13 c0 -18 3 -45 7 -62
l7 -30 -23 26 c-13 14 -31 29 -40 32 -17 6 -16 9 3 41 24 42 47 38 46 -7z m-7
-133 c0 -8 -4 -14 -10 -14 -5 0 -10 9 -10 21 0 11 5 17 10 14 6 -3 10 -13 10
-21z m1739 12 c-10 -9 -79 -14 -74 -5 4 5 22 9 42 9 20 0 34 -2 32 -4z m-570
-32 c2 -2 -15 -4 -38 -4 -25 0 -40 4 -36 10 5 8 63 3 74 -6z m238 10 c-3 -3
-25 -8 -49 -10 -30 -3 -39 -1 -28 6 16 10 87 14 77 4z m50 0 c-3 -3 -12 -4
-19 -1 -8 3 -5 6 6 6 11 1 17 -2 13 -5z m78 -3 c-7 -12 -65 -11 -65 1 0 4 16
8 36 8 19 0 33 -4 29 -9z m-262 -8 c-7 -2 -19 -2 -25 0 -7 3 -2 5 12 5 14 0
19 -2 13 -5z m37 3 c0 -3 -4 -8 -10 -11 -5 -3 -10 -1 -10 4 0 6 5 11 10 11 6
0 10 -2 10 -4z m205 -26 c3 -5 -1 -10 -10 -10 -9 0 -13 5 -10 10 3 6 8 10 10
10 2 0 7 -4 10 -10z m-142 -17 c-7 -2 -19 -2 -25 0 -7 3 -2 5 12 5 14 0 19 -2
13 -5z m603 -30 c-4 -4 -40 -9 -79 -10 -40 -1 -72 -3 -72 -3 0 -1 -8 -3 -17
-5 -10 -2 -18 1 -18 5 0 11 26 15 119 18 41 1 71 -1 67 -5z m-2105 -22 c8 12
10 12 19 -1 15 -24 12 -28 -22 -25 -21 1 -32 8 -34 19 -2 14 0 15 13 5 12 -10
16 -10 24 2z m1893 -6 c-4 -10 0 -15 11 -15 9 0 15 -5 13 -12 -6 -18 -28 -22
-28 -5 0 22 -30 30 -31 9 -1 -16 -2 -16 -6 1 -6 24 -54 22 -104 -3 -32 -17
-39 -18 -37 -6 2 8 0 15 -4 15 -29 3 -39 -1 -36 -11 3 -7 -7 -19 -21 -26 -17
-9 -27 -10 -29 -3 -2 6 -11 11 -20 12 -14 0 -13 2 3 9 14 6 2 9 -42 9 -61 1
-63 0 -63 -24 0 -20 -5 -25 -26 -25 -14 0 -23 4 -19 10 3 6 -4 11 -17 11 -20
1 -21 2 -3 6 38 9 40 23 2 23 -20 0 -37 3 -37 8 0 4 44 7 97 7 102 0 325 14
332 21 2 2 19 4 37 4 26 0 32 -4 28 -15z m-2283 -4 c6 10 9 7 9 -11 0 -28 -19
-67 -20 -40 0 8 -3 26 -5 40 -3 14 -2 19 1 11 5 -11 8 -11 15 0z m195 -6 c-3
-8 -1 -15 5 -15 5 0 22 -12 36 -27 l25 -28 -7 43 c-4 28 -3 42 4 42 11 0 13
-5 16 -50 1 -14 6 -38 10 -53 7 -26 6 -28 -16 -25 -17 2 -25 11 -27 28 -7 50
-22 44 -22 -9 0 -32 4 -50 10 -46 6 3 13 -1 17 -11 6 -16 7 -16 19 1 13 17 15
17 32 2 25 -23 49 -21 55 3 5 20 27 28 27 10 0 -5 -4 -10 -9 -10 -5 0 -12 -20
-15 -45 -8 -47 -19 -56 -34 -29 -6 11 -12 13 -16 6 -3 -6 -1 -14 4 -17 8 -5 6
-11 -5 -19 -19 -14 -47 -90 -34 -94 5 -2 7 -8 4 -13 -3 -5 -14 -3 -25 3 -17
11 -18 14 -4 29 11 12 13 25 8 41 -4 13 -6 25 -5 27 2 2 -3 7 -11 12 -8 5 -17
1 -25 -14 -10 -18 -13 -19 -18 -6 -12 32 -11 74 3 96 8 13 11 31 7 40 -3 10
-8 34 -11 53 -2 19 -7 47 -10 63 -4 17 -1 27 6 27 7 0 10 -7 6 -15z m587 -2
c-7 -2 -21 -2 -30 0 -10 3 -4 5 12 5 17 0 24 -2 18 -5z m260 0 c-7 -2 -21 -2
-30 0 -10 3 -4 5 12 5 17 0 24 -2 18 -5z m150 0 c-7 -2 -19 -2 -25 0 -7 3 -2
5 12 5 14 0 19 -2 13 -5z m107 -5 c0 -4 -4 -8 -9 -8 -6 0 -12 4 -15 8 -3 5 1
9 9 9 8 0 15 -4 15 -9z m456 -1 c7 -6 -34 -12 -64 -8 -10 2 -9 -5 4 -23 15
-24 15 -26 0 -26 -10 0 -15 3 -12 8 2 4 -1 15 -8 24 -9 12 -32 18 -79 21 -70
4 -83 1 -67 -17 5 -7 5 -17 -2 -26 -8 -12 -9 -12 -4 3 4 13 0 17 -20 17 -14 0
-23 4 -20 9 7 11 -39 20 -55 11 -6 -4 -8 -13 -5 -19 4 -6 1 -11 -7 -11 -8 0
-17 7 -21 15 -3 8 -14 15 -25 15 -11 0 -22 4 -25 8 -6 10 400 10 410 -1z
m-1430 -34 c-4 -4 -11 -1 -16 7 -16 25 -11 35 7 17 9 -9 13 -20 9 -24z m2051
21 c-3 -3 -12 -4 -19 -1 -8 3 -5 6 6 6 11 1 17 -2 13 -5z m-1936 -16 c1 -7 3
-25 5 -40 3 -30 -19 -40 -30 -13 -3 9 0 15 9 15 8 0 15 5 15 10 0 6 -7 10 -15
10 -8 0 -15 7 -15 15 0 18 30 20 31 3z m1509 -7 c0 -6 -4 -12 -8 -15 -5 -3 -9
1 -9 9 0 8 4 15 9 15 4 0 8 -4 8 -9z m-807 -8 c-7 -2 -19 -2 -25 0 -7 3 -2 5
12 5 14 0 19 -2 13 -5z m517 -3 c0 -5 -7 -10 -16 -10 -8 0 -12 5 -9 10 3 6 10
10 16 10 5 0 9 -4 9 -10z m-1580 -7 c-1 -18 -18 -35 -24 -24 -4 6 -4 16 -1 21
7 12 25 13 25 3z m690 -3 c0 -5 -4 -10 -10 -10 -5 0 -10 5 -10 10 0 6 5 10 10
10 6 0 10 -4 10 -10z m677 -12 c-3 -8 -6 -5 -6 6 -1 11 2 17 5 13 3 -3 4 -12
1 -19z m53 18 c0 -3 -4 -8 -10 -11 -5 -3 -10 -1 -10 4 0 6 5 11 10 11 6 0 10
-2 10 -4z m-1335 -63 c13 -71 -27 -114 -52 -55 -19 43 -25 94 -13 102 22 13
58 -14 65 -47z m685 41 c0 -2 -14 -4 -31 -4 -16 0 -28 4 -25 9 5 8 56 3 56 -5z
m-510 -19 c0 -8 -4 -16 -9 -19 -5 -3 -8 5 -8 19 0 14 3 22 8 19 5 -3 9 -11 9
-19z m2088 10 c-2 -2 -39 -5 -83 -8 -44 -2 -68 -2 -52 0 15 2 27 7 27 11 0 4
25 5 56 4 30 -2 54 -5 52 -7z m-292 -33 c-13 -12 -562 -20 -573 -8 -7 7 37 8
237 8 93 -1 137 3 142 11 6 9 10 9 16 -1 9 -13 132 -6 132 8 0 5 11 3 24 -3
14 -7 23 -13 22 -15z m114 24 c0 -2 -9 -6 -20 -9 -11 -3 -20 -1 -20 4 0 5 9 9
20 9 11 0 20 -2 20 -4z m-1450 -21 c10 -13 9 -15 -8 -15 -15 0 -20 5 -16 15 4
8 7 15 9 15 1 0 8 -7 15 -15z m-213 -32 c-3 -10 -5 -4 -5 12 0 17 2 24 5 18 2
-7 2 -21 0 -30z m638 19 c-3 -3 -11 0 -18 7 -9 10 -8 11 6 5 10 -3 15 -9 12
-12z m70 8 c3 -5 -1 -10 -9 -10 -9 0 -16 5 -16 10 0 6 4 10 9 10 6 0 13 -4 16
-10z m118 -7 c-13 -2 -35 -2 -50 0 -16 2 -5 4 22 4 28 0 40 -2 28 -4z m95 0
c-10 -2 -28 -2 -40 0 -13 2 -5 4 17 4 22 1 32 -1 23 -4z m162 -49 c0 -2 -7 -4
-15 -4 -8 0 -15 4 -15 10 0 5 7 7 15 4 8 -4 15 -8 15 -10z m290 7 c0 -5 -9
-11 -21 -14 -16 -4 -18 -3 -8 9 13 16 29 19 29 5z m-586 -9 c2 -4 -13 -6 -35
-4 -21 2 -39 6 -39 8 0 7 69 4 74 -4z m62 -1 c-3 -5 -15 -7 -26 -4 -28 7 -25
13 6 13 14 0 23 -4 20 -9z m297 2 c-7 -2 -19 -2 -25 0 -7 3 -2 5 12 5 14 0 19
-2 13 -5z m62 -4 c-18 -5 -33 -5 -39 1 -7 7 4 10 30 9 39 -1 39 -1 9 -10z
m-1255 -9 c0 -5 -5 -10 -11 -10 -5 0 -7 5 -4 10 3 6 8 10 11 10 2 0 4 -4 4
-10z m-122 -20 c22 -14 32 -27 32 -45 0 -14 -4 -25 -10 -25 -5 0 -10 5 -10 10
0 6 -6 10 -14 10 -8 0 -17 11 -20 25 -4 14 -11 25 -16 25 -6 0 -10 5 -10 10 0
15 11 12 48 -10z m112 -60 c0 -5 -2 -10 -4 -10 -3 0 -8 5 -11 10 -3 6 -1 10 4
10 6 0 11 -4 11 -10z m36 -13 c-3 -14 1 -33 10 -45 10 -15 12 -27 6 -39 -9
-15 -11 -14 -21 5 -13 24 -12 102 2 102 5 0 7 -10 3 -23z m1894 12 c19 1 49 4
65 6 34 4 65 -3 65 -14 0 -5 -24 -11 -54 -15 -29 -3 -66 -13 -82 -21 -33 -17
-58 -20 -49 -5 3 6 -1 10 -10 10 -9 0 -13 -4 -10 -10 3 -5 -3 -10 -14 -10 -11
0 -23 5 -26 10 -4 6 -11 7 -17 4 -7 -4 -6 -9 2 -14 7 -5 -34 -7 -91 -7 -70 1
-112 -3 -128 -12 -13 -7 -21 -8 -17 -2 4 7 -1 11 -13 11 -12 0 -20 -6 -18 -12
2 -15 -77 -16 -228 -4 -49 4 -105 8 -124 9 -19 1 -40 -3 -47 -10 -9 -10 -13
-10 -16 -1 -6 16 -121 13 -127 -3 -2 -7 -6 -8 -10 -1 -6 10 -216 26 -281 22
-44 -2 -232 12 -226 17 5 5 120 16 156 15 36 -1 577 -1 595 0 11 0 23 6 27 12
6 8 8 7 8 -1 0 -8 30 -11 105 -11 69 1 109 -2 117 -10 16 -16 28 -15 28 3 0
10 10 15 34 15 19 0 38 5 41 10 5 8 11 8 19 1 7 -6 26 -9 42 -7 99 13 171 20
182 17 6 -1 20 2 29 8 10 5 22 7 28 3 5 -3 25 -5 45 -3z m-2124 -29 c16 0 16
-2 8 -24 -10 -25 -34 0 -33 33 1 17 3 20 6 9 2 -10 11 -18 19 -18z m-130 -18
c-18 -16 -19 -16 -12 1 3 10 6 24 6 30 0 8 4 7 12 -1 10 -9 8 -16 -6 -30z
m724 -4 c0 -7 5 -7 13 0 7 6 18 7 26 3 23 -15 -2 -19 -94 -15 -107 4 -107 4
-75 13 37 11 130 10 130 -1z m-566 -34 c13 -33 6 -81 -14 -99 -17 -16 -19 -42
-2 -31 4 2 6 -19 5 -47 -2 -29 -8 -53 -13 -55 -6 -2 -10 -11 -10 -20 -1 -15
-2 -15 -11 1 -12 21 -29 14 -29 -13 0 -10 -7 -20 -15 -24 -10 -3 -15 1 -15 11
0 9 -3 13 -7 10 -3 -4 -12 1 -19 11 -12 16 -13 15 -14 -7 0 -29 -12 -20 -17
12 -6 39 -9 191 -5 220 3 20 7 25 13 15 5 -7 23 -13 41 -13 32 0 33 -2 42 -52
10 -60 26 -71 26 -19 0 19 6 37 13 40 10 5 10 7 0 12 -27 12 -13 59 18 63 4 1
10 -6 13 -15z m1089 -11 c-7 -2 -21 -2 -30 0 -10 3 -4 5 12 5 17 0 24 -2 18
-5z m-913 -78 c0 -38 -3 -45 -19 -45 -11 0 -23 5 -26 10 -3 6 -1 10 4 10 6 0
11 10 11 23 0 19 16 47 27 47 2 0 3 -20 3 -45z m-94 -62 c-11 -11 -17 4 -9 23
7 18 8 18 11 1 2 -10 1 -21 -2 -24z m98 -100 c-2 -68 -3 -73 -15 -73 -8 0 -10
14 -6 40 3 22 1 43 -5 46 -12 7 -8 64 6 83 9 11 12 7 16 -20 3 -19 4 -53 4
-76z m28 45 c-9 -9 -12 -4 -11 23 0 32 1 33 11 11 8 -17 8 -26 0 -34z m-72
-48 c0 -5 -6 -10 -14 -10 -8 0 -18 5 -21 10 -3 6 3 10 14 10 12 0 21 -4 21
-10z m-239 -73 c-10 -9 -11 -8 -5 6 3 10 9 15 12 12 3 -3 0 -11 -7 -18z m35
-24 c-11 -11 -17 4 -9 23 7 18 8 18 11 1 2 -10 1 -21 -2 -24z m73 -8 c24 7 26
2 11 -26 -7 -13 -7 -19 0 -19 5 0 10 -7 10 -15 0 -20 -28 -8 -35 16 -4 11 -11
17 -16 14 -5 -4 -9 -3 -9 2 0 4 -3 19 -6 33 -5 24 -5 24 10 7 10 -13 21 -17
35 -12z m159 13 c-2 -7 2 -12 7 -11 6 1 10 -14 11 -33 0 -32 0 -33 -18 -17
-18 16 -24 53 -11 66 10 10 13 8 11 -5z m-99 -20 c0 -7 -4 -22 -9 -33 -7 -16
-9 -17 -9 -3 -1 9 -4 23 -7 32 -4 11 -1 16 10 16 9 0 16 -6 15 -12z m161 -5
c0 -5 -5 -15 -10 -23 -8 -12 -10 -11 -10 8 0 12 5 22 10 22 6 0 10 -3 10 -7z
m-286 -61 c18 -65 20 -110 6 -132 -15 -25 -22 -5 -32 95 -1 6 2 22 5 37 4 15
3 30 -3 33 -12 8 -13 25 -1 25 4 0 16 -26 25 -58z m122 -40 c-12 -11 -18 7
-10 30 l8 23 4 -23 c2 -13 1 -26 -2 -30z m-381 -58 c0 -5 -8 -10 -17 -12 -11
-2 -18 3 -18 11 0 9 8 14 18 13 9 -2 17 -7 17 -12z m331 -51 c-10 -10 -19 5
-10 18 6 11 8 11 12 0 2 -7 1 -15 -2 -18z m62 -50 c-3 -50 -16 -39 -16 13 1
28 4 40 10 32 4 -7 7 -28 6 -45z m-38 -38 c0 -8 -4 -17 -10 -20 -5 -3 -10 -2
-10 4 0 5 -3 17 -6 25 -5 12 -2 15 10 10 9 -3 16 -12 16 -19z m-92 -40 c1 -19
-3 -35 -8 -35 -9 0 -11 46 -3 63 7 13 10 7 11 -28z m827 -24 c-3 -6 -14 -9
-25 -8 -24 2 -15 17 11 17 11 0 18 -4 14 -9z m-202 -8 c-13 -2 -33 -2 -45 0
-13 2 -3 4 22 4 25 0 35 -2 23 -4z m767 -3 c-34 -11 -60 -11 -35 0 11 5 29 8
40 8 16 0 15 -2 -5 -8z m-1590 -55 c0 -5 -5 -3 -10 5 -5 8 -10 20 -10 25 0 6
5 3 10 -5 5 -8 10 -19 10 -25z m127 13 c-3 -8 -6 -5 -6 6 -1 11 2 17 5 13 3
-3 4 -12 1 -19z m1460 6 c-3 -3 -12 -4 -19 -1 -8 3 -5 6 6 6 11 1 17 -2 13 -5z
m-1470 -56 c-3 -8 -6 -5 -6 6 -1 11 2 17 5 13 3 -3 4 -12 1 -19z m-95 -28 c-4
-29 -15 -39 -26 -21 -6 10 16 61 25 56 3 -2 4 -18 1 -35z m1300 8 c-6 -6 -27
-11 -47 -10 -20 1 -33 -2 -31 -7 8 -12 46 -21 46 -11 0 4 10 6 21 3 19 -5 20
-7 4 -15 -28 -16 -79 -28 -84 -20 -4 4 -17 13 -31 19 -18 9 -20 12 -7 12 9 1
17 6 17 11 0 14 -87 13 -96 -1 -4 -8 3 -9 25 -4 26 6 30 4 25 -10 -9 -23 -64
-17 -87 9 -17 21 -17 21 -32 2 -13 -18 -20 -15 -16 7 2 11 -47 9 -54 -3 -3 -5
1 -10 9 -10 9 0 16 -9 16 -20 0 -11 -4 -20 -10 -20 -5 0 -10 6 -10 14 0 10
-11 13 -42 11 -24 -1 -53 -3 -66 -4 -13 0 -21 -5 -18 -10 10 -15 -48 -9 -79 8
l-30 16 38 3 c47 4 49 22 2 22 -19 0 -35 4 -35 9 0 6 118 10 291 10 213 0 289
-3 281 -11z m336 2 c40 0 61 -4 57 -10 -3 -5 -21 -10 -39 -10 -17 0 -37 -5
-44 -12 -7 -7 -12 -9 -12 -5 0 3 -11 2 -24 -3 -18 -6 -28 -5 -36 6 -17 20 -47
18 -52 -4 -6 -22 -36 -25 -34 -3 1 10 -13 17 -43 23 -25 4 -49 13 -55 19 -8 9
18 10 104 5 63 -3 143 -6 178 -6z m-708 -121 c0 -5 -43 -9 -97 -9 -53 0 -94 3
-90 6 3 3 40 6 81 6 42 0 79 4 82 9 6 11 24 2 24 -12z m280 1 c0 -5 -15 -10
-32 -9 -31 1 -32 1 -8 9 35 11 40 11 40 0z m77 -3 c3 -4 -8 -7 -25 -7 -18 0
-32 4 -32 8 0 9 47 8 57 -1z m103 3 c0 -11 -37 -19 -60 -13 -11 3 -18 9 -15
13 6 10 75 10 75 0z m-890 -15 c0 -8 -7 -15 -15 -15 -26 0 -18 20 13 29 1 1 2
-6 2 -14z m498 8 c-10 -2 -26 -2 -35 0 -10 3 -2 5 17 5 19 0 27 -2 18 -5z
m105 0 c-7 -2 -21 -2 -30 0 -10 3 -4 5 12 5 17 0 24 -2 18 -5z m385 0 c-10 -2
-28 -2 -40 0 -13 2 -5 4 17 4 22 1 32 -1 23 -4z m57 -3 c-3 -5 -14 -10 -23
-10 -15 0 -15 2 -2 10 20 13 33 13 25 0z m183 -7 c-10 -2 -26 -2 -35 0 -10 3
-2 5 17 5 19 0 27 -2 18 -5z m-915 -40 c-7 -2 -19 -2 -25 0 -7 3 -2 5 12 5 14
0 19 -2 13 -5z m100 0 c-7 -2 -19 -2 -25 0 -7 3 -2 5 12 5 14 0 19 -2 13 -5z
m97 3 c0 -9 -39 -13 -51 -5 -10 6 -4 9 19 9 17 0 32 -2 32 -4z m-90 -146 c19
-1 21 -3 8 -8 -10 -4 -31 -6 -48 -6 -16 1 -54 2 -82 3 -31 2 -46 5 -36 9 15 6
54 7 158 2z m397 -6 c2 -6 -8 -14 -22 -16 -18 -4 -25 -1 -26 11 0 12 -2 11 -9
-4 -8 -19 -9 -19 -9 3 -1 20 3 23 31 20 17 -2 33 -8 35 -14z m223 2 c0 -3 -4
-8 -10 -11 -5 -3 -10 -1 -10 4 0 6 5 11 10 11 6 0 10 -2 10 -4z m180 -21 c0
-8 -2 -15 -4 -15 -2 0 -6 7 -10 15 -3 8 -1 15 4 15 6 0 10 -7 10 -15z m-1245
-44 c3 -5 1 -12 -5 -16 -5 -3 -10 1 -10 9 0 18 6 21 15 7z m-287 -36 c-2 -10
-7 -12 -17 -5 -13 7 -13 11 -1 25 15 18 24 8 18 -20z m2 -60 c0 -19 -2 -35 -4
-35 -2 0 -6 16 -8 35 -2 19 0 35 4 35 4 0 8 -16 8 -35z m80 -45 c0 -4 -11 -10
-25 -12 -15 -3 -25 -1 -25 6 0 6 11 12 25 12 14 1 25 -2 25 -6z m212 -42 c-29
-11 -33 -9 -14 10 11 12 19 14 24 8 4 -6 0 -14 -10 -18z m2052 -542 c-7 -19
-85 -31 -95 -15 -6 10 -11 10 -22 1 -8 -7 -22 -10 -31 -6 -30 12 -7 21 61 23
37 1 70 4 72 7 10 9 20 3 15 -10z m-1574 -16 c0 -5 -5 -10 -11 -10 -5 0 -7 5
-4 10 3 6 8 10 11 10 2 0 4 -4 4 -10z m600 -5 c-9 -11 -16 -12 -25 -5 -9 8
-15 8 -20 0 -11 -18 2 -24 46 -23 54 1 42 -8 -16 -12 -26 -2 -64 -6 -86 -10
-25 -4 -39 -3 -39 4 0 6 9 11 20 11 11 0 20 4 20 9 0 14 -38 24 -52 14 -7 -4
-44 -10 -83 -13 -60 -4 -70 -8 -67 -22 3 -19 2 -19 -103 -23 -27 -1 -42 0 -32
2 9 3 17 11 17 20 0 12 -13 14 -87 9 -49 -4 -94 -7 -100 -6 -53 1 -73 4 -66
11 4 4 76 10 158 13 100 4 143 3 128 -4 -49 -20 -14 -39 45 -24 18 5 20 9 11
20 -7 8 -10 16 -8 18 7 7 189 23 273 25 69 1 77 -1 66 -14z m110 7 c0 -10 -66
-10 -76 1 -4 4 11 7 34 7 23 0 42 -4 42 -8z m560 -14 c0 -4 -8 -8 -17 -9 -10
0 -31 -2 -48 -4 -39 -3 -80 6 -66 15 16 9 131 8 131 -2z m43 5 c-7 -2 -19 -2
-25 0 -7 3 -2 5 12 5 14 0 19 -2 13 -5z m82 -3 c11 -5 16 -9 12 -9 -5 -1 -6
-5 -3 -10 3 -5 21 -5 40 -1 19 4 40 4 46 0 18 -11 -14 -20 -70 -19 -25 0 -61
-4 -80 -10 -19 -6 -38 -7 -43 -2 -4 4 13 14 40 21 28 8 41 15 31 17 -20 5 -25
23 -5 22 6 0 21 -4 32 -9z m-688 -26 c-3 -3 -12 -4 -19 -1 -8 3 -5 6 6 6 11 1
17 -2 13 -5z m-850 -10 c-3 -3 -12 -4 -19 -1 -8 3 -5 6 6 6 11 1 17 -2 13 -5z
m588 -4 c-3 -5 -12 -10 -18 -10 -7 0 -6 4 3 10 19 12 23 12 15 0z m-82 -7 c-7
-2 -21 -2 -30 0 -10 3 -4 5 12 5 17 0 24 -2 18 -5z m864 1 c-3 -3 -12 -4 -19
-1 -8 3 -5 6 6 6 11 1 17 -2 13 -5z m-1257 -25 c0 -5 -15 -9 -32 -9 -20 0 -28
3 -21 8 18 11 53 12 53 1z m44 -3 c-3 -8 -12 -12 -20 -9 -21 8 -17 23 6 23 13
0 18 -5 14 -14z m1596 -15 c0 -11 5 -21 11 -23 18 -6 0 -33 -31 -47 -31 -13
-66 -8 -55 8 3 5 1 12 -5 16 -5 3 -10 -1 -10 -9 0 -10 -15 -17 -45 -22 -50 -7
-55 -16 -23 -38 16 -11 24 -12 29 -4 4 7 19 8 39 5 17 -4 40 -2 51 4 15 7 23
6 34 -5 13 -13 10 -16 -30 -22 -43 -6 -61 -26 -32 -37 7 -4 6 -6 -4 -6 -9 -1
-19 8 -22 19 -5 20 -45 28 -61 13 -4 -5 -22 -9 -39 -9 -41 -2 -162 -13 -173
-15 -15 -4 -84 13 -84 20 0 4 18 5 40 3 22 -2 46 1 54 7 7 6 29 11 47 10 19 0
50 3 69 6 26 5 31 4 20 -4 -13 -9 -13 -11 1 -11 9 0 19 10 21 23 4 22 3 22
-80 20 -47 -2 -83 0 -79 3 3 3 12 7 21 8 9 1 15 6 14 12 -2 5 -6 8 -10 7 -5
-2 -8 8 -8 22 0 14 5 25 10 25 6 0 10 -8 8 -17 -2 -12 4 -19 20 -21 26 -4 30
15 5 20 -40 8 33 30 141 43 157 18 156 18 156 -4z m-2290 5 c0 -3 -4 -8 -10
-11 -5 -3 -10 -1 -10 4 0 6 5 11 10 11 6 0 10 -2 10 -4z m1495 -28 c-22 -5
-57 -7 -77 -4 -48 7 -70 -1 -63 -24 4 -12 -5 -22 -30 -36 -40 -21 -45 -31 -12
-29 12 1 29 -3 39 -9 9 -7 49 -11 92 -10 42 1 78 -2 81 -6 3 -4 -48 -8 -113
-9 -196 -2 -260 -7 -275 -19 -12 -10 -21 -10 -41 -1 -14 7 -29 10 -32 6 -9 -9
6 -27 30 -37 16 -7 11 -9 -25 -9 -25 -1 -49 -4 -52 -8 -4 -3 -42 -8 -85 -10
-42 -2 -103 -5 -134 -7 -41 -2 -55 0 -51 8 13 20 11 34 -4 40 -8 3 -19 4 -24
0 -5 -3 -17 0 -26 5 -15 9 -13 10 12 11 39 0 105 19 105 29 0 5 -59 8 -131 7
-136 -1 -152 2 -147 25 5 22 19 28 55 22 19 -3 33 -1 33 5 0 12 -52 21 -86 14
-18 -3 -23 -9 -19 -22 8 -25 -61 -38 -84 -16 -10 11 -11 16 -3 16 7 0 12 5 12
10 0 6 -11 10 -25 10 -14 0 -25 4 -25 10 0 6 31 10 73 10 188 -1 344 7 362 17
12 6 59 11 105 11 78 0 363 12 367 15 1 1 55 0 120 -2 99 -3 112 -5 78 -13z
m90 2 c3 -6 -1 -7 -9 -4 -18 7 -21 14 -7 14 6 0 13 -4 16 -10z m290 -10 c25
-1 27 -2 10 -9 -11 -5 -56 -4 -100 0 -114 13 -124 18 -25 14 47 -2 99 -4 115
-5z m-435 -50 c0 -5 -4 -10 -9 -10 -6 0 -13 5 -16 10 -3 6 1 10 9 10 9 0 16
-4 16 -10z m-1033 -16 c-3 -3 -12 -4 -19 -1 -8 3 -5 6 6 6 11 1 17 -2 13 -5z
m1508 -4 c-3 -5 -10 -10 -16 -10 -5 0 -9 5 -9 10 0 6 7 10 16 10 8 0 12 -4 9
-10z m-98 -54 c3 -3 -16 -6 -43 -6 -31 0 -44 3 -35 9 14 9 68 8 78 -3z m-1161
-20 c4 -12 12 -24 18 -28 6 -5 2 -8 -11 -8 -12 0 -24 4 -27 8 -3 5 -51 8 -108
7 -57 -1 -112 2 -123 6 -12 5 16 8 68 8 57 1 93 6 101 14 7 6 27 12 44 13 24
1 33 -4 38 -20z m639 -6 c6 0 3 -5 -5 -9 -9 -5 -51 -11 -95 -14 -50 -3 -71 -1
-57 4 12 5 22 13 22 18 0 7 58 8 135 1z m40 0 c3 -5 1 -10 -4 -10 -6 0 -11 5
-11 10 0 6 2 10 4 10 3 0 8 -4 11 -10z m839 -14 c-4 -12 -12 -12 -37 -4 -46
16 -45 18 1 18 32 0 40 -3 36 -14z m-279 -6 c3 -5 1 -10 -4 -10 -6 0 -11 5
-11 10 0 6 2 10 4 10 3 0 8 -4 11 -10z m325 -30 c0 -5 -7 -7 -15 -4 -8 4 -15
8 -15 10 0 2 7 4 15 4 8 0 15 -4 15 -10z m-1680 -4 c0 -2 -7 -6 -15 -10 -8 -3
-15 -1 -15 4 0 6 7 10 15 10 8 0 15 -2 15 -4z m83 -3 c-7 -2 -19 -2 -25 0 -7
3 -2 5 12 5 14 0 19 -2 13 -5z m90 0 c-7 -2 -19 -2 -25 0 -7 3 -2 5 12 5 14 0
19 -2 13 -5z m1417 3 c0 -2 -9 -6 -20 -9 -11 -3 -20 -1 -20 4 0 5 9 9 20 9 11
0 20 -2 20 -4z m-1210 -87 c0 -5 -4 -9 -10 -9 -5 0 -10 7 -10 16 0 8 5 12 10
9 6 -3 10 -10 10 -16z m1367 -13 c-17 -18 -36 -24 -87 -28 -36 -3 -81 -13 -99
-23 -26 -13 -35 -14 -41 -4 -8 12 -28 17 -84 18 -45 1 -20 19 44 31 30 6 93
13 140 16 46 3 87 7 89 10 2 2 17 4 32 4 l28 0 -22 -24z m-1303 8 c9 -3 16
-13 16 -21 0 -12 7 -14 28 -8 15 4 62 9 104 12 60 4 82 2 100 -11 12 -9 18
-16 13 -16 -6 -1 -37 -3 -70 -5 -33 -3 -106 -7 -163 -9 -56 -3 -108 -8 -114
-13 -19 -11 -162 -3 -170 10 -6 9 -8 9 -8 0 0 -7 -5 -13 -11 -13 -5 0 -8 4 -4
9 3 5 1 12 -4 16 -5 3 -14 -2 -18 -10 -10 -17 -75 -26 -95 -13 -9 5 -6 8 8 8
12 0 39 7 60 16 31 13 45 14 69 6 35 -13 168 -7 196 9 11 5 30 7 42 3 18 -5
20 -4 10 7 -23 23 -17 34 11 23z m405 -15 c11 6 28 11 37 11 16 0 16 -2 4 -14
-17 -16 -141 -28 -161 -15 -11 6 -11 9 1 13 38 12 47 12 72 4 17 -6 34 -6 47
1z m96 -9 c4 -6 -5 -10 -20 -10 -15 0 -24 4 -20 10 3 6 12 10 20 10 8 0 17 -4
20 -10z m-375 -50 c-8 -5 -22 -9 -30 -9 -10 0 -8 3 5 9 27 12 43 12 25 0z"/>
<path d="M4540 7754 c0 -8 5 -12 10 -9 6 3 10 10 10 16 0 5 -4 9 -10 9 -5 0
-10 -7 -10 -16z"/>
<path d="M4290 7475 c0 -8 5 -15 10 -15 6 0 10 7 10 15 0 8 -4 15 -10 15 -5 0
-10 -7 -10 -15z"/>
<path d="M4290 7430 c0 -5 5 -10 10 -10 6 0 10 5 10 10 0 6 -4 10 -10 10 -5 0
-10 -4 -10 -10z"/>
<path d="M4401 7183 c-1 -13 -5 -23 -11 -23 -16 0 -12 -27 5 -34 8 -3 15 -2
16 2 0 4 2 14 3 22 2 8 0 24 -5 35 -7 19 -8 19 -8 -2z"/>
<path d="M4400 7081 c0 -5 5 -13 10 -16 6 -3 10 -2 10 4 0 5 -4 13 -10 16 -5
3 -10 2 -10 -4z"/>
<path d="M5145 6380 c-4 -6 5 -10 19 -10 14 0 26 5 26 10 0 6 -9 10 -19 10
-11 0 -23 -4 -26 -10z"/>
<path d="M5768 5243 c7 -3 16 -2 19 1 4 3 -2 6 -13 5 -11 0 -14 -3 -6 -6z"/>
<path d="M6705 5110 c4 -6 11 -8 16 -5 14 9 11 15 -7 15 -8 0 -12 -5 -9 -10z"/>
<path d="M6590 5100 c0 -5 7 -10 15 -10 8 0 15 5 15 10 0 6 -7 10 -15 10 -8 0
-15 -4 -15 -10z"/>
<path d="M5840 5130 c0 -5 6 -10 14 -10 8 0 18 5 21 10 3 6 -3 10 -14 10 -12
0 -21 -4 -21 -10z"/>
<path d="M5640 5120 c0 -5 4 -10 9 -10 6 0 13 5 16 10 3 6 -1 10 -9 10 -9 0
-16 -4 -16 -10z"/>
<path d="M5565 5110 c-3 -5 3 -10 14 -10 12 0 24 0 28 -1 4 0 9 4 11 10 5 14
-45 15 -53 1z"/>
<path d="M5395 5100 c3 -5 13 -10 21 -10 8 0 14 5 14 10 0 6 -9 10 -21 10 -11
0 -17 -4 -14 -10z"/>
<path d="M5020 5090 c0 -5 11 -10 25 -10 14 0 25 5 25 10 0 6 -11 10 -25 10
-14 0 -25 -4 -25 -10z"/>
<path d="M5228 5088 c9 -9 15 -9 24 0 9 9 7 12 -12 12 -19 0 -21 -3 -12 -12z"/>
<path d="M5293 5093 c9 -2 25 -2 35 0 9 3 1 5 -18 5 -19 0 -27 -2 -17 -5z"/>
<path d="M5626 5084 c-20 -19 -20 -28 -1 -44 16 -13 19 -8 15 24 -1 11 3 15 9
12 6 -4 11 -3 11 3 0 18 -18 21 -34 5z"/>
<path d="M5140 5060 c0 -5 5 -10 10 -10 6 0 10 5 10 10 0 6 -4 10 -10 10 -5 0
-10 -4 -10 -10z"/>
<path d="M5742 5058 c3 -7 21 -14 41 -16 28 -2 37 1 37 12 0 12 -11 16 -41 16
-28 0 -39 -4 -37 -12z"/>
<path d="M5456 5045 c-3 -8 -1 -15 4 -15 13 0 22 18 11 24 -5 3 -11 -1 -15 -9z"/>
<path d="M5513 5048 c-27 -13 -31 -32 -5 -24 9 3 29 8 45 12 15 3 27 10 27 15
0 12 -40 10 -67 -3z"/>
<path d="M5700 5049 c0 -5 5 -7 10 -4 6 3 10 8 10 11 0 2 -4 4 -10 4 -5 0 -10
-5 -10 -11z"/>
<path d="M5432 4992 c-20 -2 -32 -8 -29 -15 4 -14 167 -20 167 -6 0 5 -7 9
-15 9 -8 0 -15 5 -15 10 0 10 -19 10 -108 2z"/>
<path d="M4255 7768 c-11 -28 -1 -111 14 -116 11 -4 12 7 7 59 -8 68 -12 81
-21 57z"/>
<path d="M4160 7720 c0 -5 5 -10 10 -10 6 0 10 5 10 10 0 6 -4 10 -10 10 -5 0
-10 -4 -10 -10z"/>
<path d="M4070 7635 c-1 -5 -1 -23 0 -40 2 -37 20 -60 19 -24 -1 28 -16 79
-19 64z"/>
<path d="M4085 7530 c3 -5 8 -10 11 -10 2 0 4 5 4 10 0 6 -5 10 -11 10 -5 0
-7 -4 -4 -10z"/>
<path d="M4090 7480 c0 -5 5 -10 10 -10 6 0 10 5 10 10 0 6 -4 10 -10 10 -5 0
-10 -4 -10 -10z"/>
<path d="M4100 7444 c0 -8 5 -12 10 -9 6 4 8 11 5 16 -9 14 -15 11 -15 -7z"/>
<path d="M4120 7279 c0 -18 -4 -28 -10 -24 -6 4 -8 11 -5 16 4 5 1 9 -4 9 -15
0 -18 -83 -5 -120 4 -13 6 -13 14 0 7 10 10 -5 10 -47 0 -60 11 -81 24 -47 3
9 6 67 6 130 0 95 -3 114 -15 114 -10 0 -15 -10 -15 -31z"/>
<path d="M4235 7300 c3 -5 8 -10 11 -10 2 0 4 5 4 10 0 6 -5 10 -11 10 -5 0
-7 -4 -4 -10z"/>
<path d="M4205 7270 c-3 -5 1 -10 10 -10 9 0 13 5 10 10 -3 6 -8 10 -10 10 -2
0 -7 -4 -10 -10z"/>
<path d="M4165 7230 c-3 -5 -1 -10 4 -10 6 0 11 5 11 10 0 6 -2 10 -4 10 -3 0
-8 -4 -11 -10z"/>
<path d="M4165 7201 c-6 -11 9 -23 19 -14 9 9 7 23 -3 23 -6 0 -12 -4 -16 -9z"/>
<path d="M4180 7142 c0 -5 7 -17 15 -28 15 -19 20 -8 9 20 -6 17 -24 22 -24 8z"/>
<path d="M9930 7099 c0 -11 5 -17 10 -14 6 3 10 13 10 21 0 8 -4 14 -10 14 -5
0 -10 -9 -10 -21z"/>
<path d="M4169 7098 c-1 -2 -2 -31 -4 -66 -2 -62 -2 -62 17 -45 11 10 22 17
24 16 23 -15 32 23 14 57 -9 17 -48 46 -51 38z"/>
<path d="M4260 7070 c0 -11 4 -20 9 -20 6 0 9 9 8 20 -1 11 -5 20 -9 20 -4 0
-8 -9 -8 -20z"/>
<path d="M9642 7063 c-6 -2 -10 -9 -7 -13 7 -11 35 -2 35 11 0 10 -8 10 -28 2z"/>
<path d="M4122 6958 c6 -18 28 -21 28 -4 0 9 -7 16 -16 16 -9 0 -14 -5 -12
-12z"/>
<path d="M9680 6944 c-11 -13 -10 -16 8 -20 12 -4 19 -11 15 -20 -3 -8 0 -14
6 -14 7 0 10 11 7 28 -2 15 -5 30 -5 35 -2 12 -18 8 -31 -9z"/>
<path d="M9614 6912 c-15 -10 -27 -62 -14 -62 5 0 10 1 10 3 0 1 4 17 9 35 5
17 9 32 8 32 -1 0 -7 -4 -13 -8z"/>
<path d="M9766 6854 c-37 -56 -43 -70 -33 -85 11 -17 12 -17 30 -1 22 20 67
104 67 126 0 36 -22 22 -64 -40z"/>
<path d="M9665 6880 c-3 -5 -1 -10 4 -10 6 0 11 5 11 10 0 6 -2 10 -4 10 -3 0
-8 -4 -11 -10z"/>
<path d="M9660 6820 c0 -5 5 -10 11 -10 5 0 7 5 4 10 -3 6 -8 10 -11 10 -2 0
-4 -4 -4 -10z"/>
<path d="M9630 6780 c0 -5 5 -10 10 -10 6 0 10 5 10 10 0 6 -4 10 -10 10 -5 0
-10 -4 -10 -10z"/>
<path d="M9570 6739 c0 -5 5 -7 10 -4 6 3 10 8 10 11 0 2 -4 4 -10 4 -5 0 -10
-5 -10 -11z"/>
<path d="M9572 6460 c0 -31 4 -53 13 -60 22 -18 30 13 16 60 -17 56 -27 56
-29 0z"/>
<path d="M9430 6335 c-7 -14 -11 -28 -7 -31 9 -9 37 22 37 40 0 24 -15 19 -30
-9z"/>
<path d="M3487 6232 c-10 -10 -14 -22 -10 -25 7 -8 43 21 43 35 0 14 -16 9
-33 -10z"/>
<path d="M11631 4857 c-129 -345 -386 -834 -634 -1207 -587 -879 -1326 -1548
-2182 -1978 -495 -248 -1043 -420 -1585 -497 -25 -3 -56 -8 -70 -10 -27 -4
-275 -31 -380 -40 -148 -14 -727 -13 -900 1 -865 70 -1597 294 -2340 717 -528
300 -1093 780 -1516 1287 -136 163 -360 474 -408 569 l-18 33 63 92 c203 292
308 451 302 453 -5 1 -156 23 -338 48 -181 25 -537 75 -790 110 -670 94 -730
102 -733 100 -1 -1 57 -208 129 -461 71 -252 196 -691 276 -974 80 -283 149
-518 153 -523 3 -4 100 116 216 268 115 151 212 274 215 275 3 0 57 -59 118
-130 216 -251 532 -571 791 -800 47 -41 87 -77 90 -80 17 -18 214 -182 320
-266 306 -245 724 -532 1022 -703 18 -10 62 -35 98 -56 619 -353 1345 -619
1990 -729 362 -61 474 -70 885 -70 390 0 519 11 880 70 744 122 1510 380 2069
698 54 31 100 56 102 56 8 0 235 143 354 222 479 322 936 744 1311 1213 389
486 714 1045 951 1635 91 227 208 593 194 607 -4 5 -583 163 -596 163 -3 0
-20 -42 -39 -93z"/>
<path d="M8070 4550 c0 -5 7 -10 16 -10 8 0 12 5 9 10 -3 6 -10 10 -16 10 -5
0 -9 -4 -9 -10z"/>
</g>
</svg>
